<?xml version="1.0" encoding="utf-8"?>
<!-- Generator: Adobe Illustrator 22.1.0, SVG Export Plug-In . SVG Version: 6.00 Build 0)  -->
<svg version="1.1" id="Слой_1" xmlns="http://www.w3.org/2000/svg" xmlns:xlink="http://www.w3.org/1999/xlink" x="0px" y="0px"
	 viewBox="0 0 568 188" style="enable-background:new 0 0 568 188;" xml:space="preserve">
<style type="text/css">
	.st0{fill:#FFFFFF;stroke:#FFFFFF;stroke-width:4;stroke-linecap:round;stroke-linejoin:round;stroke-miterlimit:10;}
</style>
<path id="Path_46" class="st0" d="M127.9,156.7H141l11.8-36.7l7.6,36.7h12.5l21.4-69.9h-13.9L168.6,129l-8.4-42.2h-11.7L127.9,156.7
	z"/>
<path id="Path_47" class="st0" d="M207.5,86.8l-21.4,69.9H200l21.4-69.9C221.4,86.8,207.5,86.8,207.5,86.8z"/>
<path id="Path_48" class="st0" d="M209.7,79.6h13.1L227,67h-13.1L209.7,79.6z"/>
<path id="Path_49" class="st0" d="M250.5,36.6L213,156.8h14.3l37-120.2C264.3,36.6,250.5,36.6,250.5,36.6z"/>
<path id="Path_50" class="st0" d="M262.3,86.8l-21.4,69.9h13.9l21.4-69.9H262.3z"/>
<path id="Path_51" class="st0" d="M264.4,79.6H277l4.2-12.6h-12.6L264.4,79.6z"/>
<path id="Path_52" class="st0" d="M22.9,117.1c3,1.6,5.8,3.3,8.4,5.5l8.4-27.9c0,0-9.7,2.1-9.7,3.3C30.2,99.4,22.9,117.1,22.9,117.1
	z"/>
<path id="Path_53" class="st0" d="M76.5,86.8l-11.8,1.3c0,0-20.2,41.7-25.7,50.9c-0.6,1,13.1-0.4,13.1-0.4L76.5,86.8z"/>
<path id="Path_54" class="st0" d="M526.2,117.1L511,156.7c0,0,8.3,1.4,10.5,0s10.5-32,10.5-32L526.2,117.1z"/>
<path id="Path_55" class="st0" d="M539.2,135.7l5.9-1.7l-9.7,26.1l-5.5-7.1L539.2,135.7z"/>
<path id="Path_56" class="st0" d="M510.6,86.8L500,112.1l-5.5-25.3h-13.9l10.1,47.6l-13.5,32H69.7l16.9-38h23.6l-8.4,27.9h13.9
	L160.8,7.6h-37.5l-73,172.7h434.5l41.7-93.6L510.6,86.8L510.6,86.8z M126.2,37.5H138l-21.4,72.1H96.3L126.2,37.5z"/>
<path id="Path_57" class="st0" d="M293.1,117.6l9.7-30.7h-13.9l-21.4,69.9h46.3l13.1-39.6L293.1,117.6z M303.6,144.9h-20.2l5.5-16
	h20.2L303.6,144.9z"/>
<path id="Path_58" class="st0" d="M326,156.8l21.4-69.9h13.9l-2.1,6.8l13.5-0.5l-4.6,13.5h-11.8l-16.4,50.1H326z"/>
<path id="Path_59" class="st0" d="M421.6,156.8L443,86.9h13.9l-2.1,6.8l13.1-0.5l-4.2,13.5h-12.3l-16,50.1H421.6z"/>
<path id="Path_60" class="st0" d="M387.9,86.8l-21.4,69.9h13.1l8.4-26.9h16.4l-8,26.9h13.5l19.8-69.9
	C429.7,86.8,387.9,86.8,387.9,86.8z M408.2,117.1h-16.4l5.9-18.6h16L408.2,117.1z"/>
</svg>
