<?xml version="1.0" encoding="utf-8"?>
<!-- Generator: Adobe Illustrator 22.1.0, SVG Export Plug-In . SVG Version: 6.00 Build 0)  -->
<svg version="1.1" id="Слой_1" xmlns="http://www.w3.org/2000/svg" xmlns:xlink="http://www.w3.org/1999/xlink" x="0px" y="0px"
	 viewBox="0 0 1280 1280" style="enable-background:new 0 0 1280 1280;" xml:space="preserve">
<style type="text/css">
	.st0{fill:#666666;}
	.st1{fill:#666666;stroke:#B3B3B3;stroke-linecap:round;stroke-linejoin:round;stroke-miterlimit:10;}
	.st2{fill:#418181;stroke:#418181;stroke-width:6;stroke-miterlimit:10;}
	.st3{fill:#E6E6E6;stroke:#666666;stroke-width:36;stroke-miterlimit:10;}
	.st4{fill:none;}
	.st5{fill:none;stroke:#FF9600;stroke-width:12;stroke-miterlimit:10;}
	.st6{fill:none;stroke:#595959;stroke-width:8;stroke-miterlimit:10;}
	.st7{fill:none;stroke:#C1272D;stroke-width:12;stroke-miterlimit:10;}
	.st8{fill:none;stroke:#D3D3D3;stroke-width:8;stroke-miterlimit:10;}
	.st9{fill:#FFFFFF;}
	.st10{fill:#418181;}
</style>
<rect id="Rectangle_807" x="662.5" y="762.4" transform="matrix(0.7071 -0.7071 0.7071 0.7071 -360.1182 728.0059)" class="st0" width="72.5" height="72.5"/>
<rect id="Rectangle_808" x="699.5" y="822.8" transform="matrix(0.7071 -0.7071 0.7071 0.7071 -374.2703 760.0215)" class="st0" width="61.5" height="18"/>
<path id="Path_130" class="st1" d="M794.8,831.4l-5.8,6.4l-25.5-25.5l-51.6,51.1l25.5,25.5l-6.4,6.4L942.8,1107l63.9-63.8
	L794.8,831.4z"/>
<path id="Path_131" class="st2" d="M741.5,613.2l91.7,38.3l153.8-373.7L731.6,172.1L628.3,422.2"/>
<circle id="Ellipse_35" class="st3" cx="519.2" cy="616.1" r="222.3"/>
<path id="Path_133" class="st4" d="M128.7,457.6c-19.9,17.5-50.1,15.5-67.6-4.3c-0.1-0.1-0.2-0.2-0.3-0.3c-14-15.6-12.6-39.6,3-53.5
	c0.2-0.1,0.3-0.3,0.5-0.4c12.9-11.1,32.2-9.8,43.5,2.9c8.9,9.7,8.2,24.8-1.5,33.7c-0.4,0.4-0.9,0.8-1.4,1.2
	c-8,7.2-20.3,6.6-27.6-1.4c-0.1-0.1-0.2-0.2-0.3-0.3c-5.8-6.6-5.2-16.6,1.2-22.6c5.3-4.6,13.3-4.1,18,1.2c3.8,4.1,3.6,10.5-0.4,14.4
	c0,0-0.1,0.1-0.1,0.1c-3,2.9-7.7,2.8-10.6-0.1c-0.1-0.1-0.3-0.3-0.4-0.5c-2.9-2.9-1.7-6.4,0.6-9.3"/>
<path id="Path_134" class="st5" d="M433.3,266.7c-17.7,47.6-70.7,71.7-118.2,54c0,0-0.1,0-0.1-0.1c-38.1-14-57.6-56.3-43.6-94.4
	c0-0.1,0.1-0.1,0.1-0.2c11-30.4,44.5-46,74.9-35c0.2,0.1,0.4,0.1,0.5,0.2c24.5,9.2,36.9,36.4,27.9,60.9
	c-7.2,19.4-28.6,29.5-48.2,22.6c-15.7-5.8-23.7-23.2-18-38.9c4.4-12.4,18-19,30.4-14.6c0.1,0,0.2,0.1,0.3,0.1
	c9.7,3.5,14.7,14.2,11.2,23.9c-0.1,0.2-0.1,0.3-0.2,0.5c-3,7.9-11.7,12-19.7,9.3c-6.3-2.4-9.6-9.3-7.5-15.7"/>
<path id="Path_135" class="st6" d="M158.2,559.8c-19.9,14.5-47.8,10.4-62.7-9.3c-11.7-15.7-8.5-37.9,7.1-49.6
	c0.1-0.1,0.3-0.2,0.4-0.3c12.7-9.1,30.4-6.5,40,5.8c7.4,10.3,5.3,24.6-4.6,32.5c-7.9,6-19.1,4.4-25.1-3.5c-0.1-0.2-0.3-0.4-0.4-0.6
	c-4.7-6.4-3.4-15.5,2.9-20.3c4.7-3.8,11.6-3.1,15.4,1.6c0.3,0.4,0.6,0.8,0.9,1.3c3,4.2,2.2,10-1.7,13.3c-3.1,2.6-7.8,2.1-10.3-1
	c0,0-0.1-0.1-0.1-0.1c-1.7-2.8-1.2-6.4,1.2-8.7"/>
<path id="Path_136" class="st5" d="M603.3,1004.3c-27.5,47.5-88.2,63.8-135.8,36.6c-38.1-22-51.2-70.7-29.2-108.9
	c0-0.1,0.1-0.2,0.1-0.2c17.6-30.4,56.6-40.8,87-23.2c24.5,14.2,32.9,45.5,18.7,70c0,0.1-0.1,0.2-0.1,0.2
	c-10.9,19.5-35.5,26.4-54.9,15.6c-0.3-0.2-0.5-0.3-0.8-0.5c-15.5-9-20.8-28.8-11.9-44.3c0.1-0.1,0.2-0.3,0.2-0.4
	c7.2-12.3,23-16.5,35.3-9.3c0,0,0.1,0,0.1,0c9.8,5.8,13.3,18.3,8.1,28.4c-4.7,8-15,10.7-23,6c-0.1-0.1-0.2-0.1-0.3-0.2
	c-6.4-3.7-8.6-11.8-4.9-18.2c0.1-0.1,0.2-0.3,0.3-0.4"/>
<path id="Path_137" class="st6" d="M902.8,650.3c22.1-12.6,50.2-4.9,62.8,17.1c0.2,0.3,0.3,0.6,0.5,0.9c9.9,18.1,3.5,40.9-14.5,51.1
	c-14.6,8-32.9,2.9-41.2-11.6c-6.1-11.6-2-25.9,9.3-32.5c8.8-5.1,20-2.1,25.1,6.7c0.2,0.3,0.3,0.5,0.4,0.8c3.9,7.4,1.3,16.6-5.8,20.9
	c-5.5,3.3-12.6,1.5-15.9-4c-0.1-0.2-0.2-0.4-0.3-0.6c-2.6-4.8-0.8-10.8,4-13.3c0,0,0,0,0,0c3.7-2,8.4-0.5,10.3,3.2
	c0,0.1,0.1,0.2,0.1,0.3c1.7,3,0.5,6.8-2.5,8.5c-0.1,0.1-0.3,0.1-0.4,0.2"/>
<path id="Path_138" class="st7" d="M1202.2,223.8c37.5,39.9,35.5,102.7-4.4,140.2c-0.1,0.1-0.2,0.2-0.3,0.3
	c-31.7,30-81.7,28.6-111.7-3.1c-0.1-0.1-0.2-0.2-0.3-0.3c-23.9-25.7-22.6-65.8,2.9-89.9c20.1-19.1,51.9-18.3,70.9,1.8
	c0.3,0.4,0.7,0.7,1,1.1c15.2,16.4,14.4,42-1.7,57.4c-13.2,12.4-33.9,11.9-46.4-1.2c-9.8-10.6-9.3-27.2,1.2-37.1
	c8.3-8,21.6-7.7,29.6,0.6c6.2,6.8,6,17.3-0.6,23.8c-5.5,5.1-14,4.8-19.1-0.6"/>
<path id="Path_139" class="st8" d="M1188.3,890.5c-17.5,22.6-49.9,26.7-72.5,9.3c-17.8-14.1-21.1-39.8-7.5-58
	c10.9-14.4,31.4-17.2,45.8-6.3c0.2,0.2,0.4,0.3,0.6,0.5c11.4,9,13.5,25.6,4.6,37.1c-7.1,9.2-20.3,11-29.6,4.1
	c-7.3-5.7-8.9-16.2-3.5-23.8c4.5-6,13-7.3,19.1-2.9c4.5,3.7,5.3,10.4,1.7,15.1c-2.2,3.5-6.8,4.5-10.3,2.3c-0.5-0.3-0.9-0.7-1.3-1.1
	c-3-2.2-3.7-6.4-1.5-9.4c0.1-0.2,0.2-0.3,0.4-0.5"/>
<path id="Path_140_1_" class="st9" d="M353.7,688c-42.4-78.3-15.7-175.3,59.2-215.9c0,0,20.3-8.7,31.9,7.5
	c11,15.7-1.7,33.7-1.7,33.7c-51.6,27.9-66.7,99.8-33.7,160.7c0,0,15.7,29.6-13.3,40C367.1,724,353.7,688,353.7,688z"/>
<path class="st10" d="M711.3,698.1L468,598.4L555.9,412c0,0,89,14.2,134.2,89c0,0,30.9,40.4,35.6,100.9
	C725.7,602,730.2,655.4,711.3,698.1z"/>
</svg>
