<svg xmlns="http://www.w3.org/2000/svg" viewBox="0 0 128 128"><path d="M42.3 69.8s-2.2-.7-5.2 2.2l-17 16.9s-5.4 8.8 2 16.8 17.3 1.7 17.3 1.7l16.9-16.9s2-2.6 1.8-4.9L70 73.7s6.1 13.9-4.9 26.8l-16.9 16.9s-17.4 14.3-35.6-2.1c0 0-16.6-16.8-1.6-35.9l16.8-16.8s9.9-10.5 26.2-4.8l-11.7 12zM69.5 42.5s-.7-2.2 2.2-5.2l16.9-16.9s8.8-5.4 16.8 2 1.7 17.3 1.7 17.3L90.2 56.5s-2.6 2-4.9 1.8L73.4 70.2s13.9 6.1 26.8-4.9l16.9-16.9S131.4 31 115 12.8c0 0-16.8-16.6-35.9-1.6L62.3 28s-10.5 9.9-4.8 26.2l12-11.7z"/><path d="M89.7 38c-.5-.4-5-3.6-8.9-.5L37.2 81.1s-2.7 4.5.8 8.7l.1-.1c4.2 3.5 8.6.8 8.6.8l43.6-43.6c3.3-4.2-.5-8.9-.6-8.9z"/></svg>