<?xml version="1.0" encoding="utf-8"?>
<!-- Generator: Adobe Illustrator 22.1.0, SVG Export Plug-In . SVG Version: 6.00 Build 0)  -->
<svg version="1.1" id="Слой_1" xmlns="http://www.w3.org/2000/svg" xmlns:xlink="http://www.w3.org/1999/xlink" x="0px" y="0px"
	 viewBox="0 0 128 128" style="enable-background:new 0 0 128 128;" xml:space="preserve">
<style type="text/css">
	.st0{fill:#DDDDDD;stroke:#000000;stroke-width:2;stroke-linecap:round;stroke-linejoin:round;stroke-miterlimit:10;}
	.st1{fill:#B2B2B2;stroke:#000000;stroke-width:0.25;stroke-miterlimit:10;}
	.st2{fill:#B2B2B2;stroke:#000000;stroke-width:0.25;stroke-linecap:round;stroke-linejoin:round;stroke-miterlimit:10;}
	.st3{fill:#B2B2B2;stroke:#000000;stroke-width:0.5;stroke-linecap:round;stroke-linejoin:round;stroke-miterlimit:10;}
</style>
<g>
	<path class="st0" d="M63.4,124.3V10c0,0,42.7,0.2,47.1,31.4v82.9H63.4z"/>
	<path class="st1" d="M74.3,73.4c-4.2,0-7.5,3.3-7.5,7.4c0,4.1,3.4,7.4,7.5,7.4c4.2,0,7.5-3.3,7.5-7.4
		C81.9,76.7,78.5,73.4,74.3,73.4z M74.4,85C72,85,70,83.1,70,80.7c0-2.4,1.9-4.3,4.3-4.3c2.4,0,4.3,1.9,4.3,4.3
		C78.7,83.1,76.8,85,74.4,85z"/>
	<polygon class="st2" points="110.4,45.5 101.4,45.5 99,47.9 96.5,45.5 93.6,44 96.4,42.6 99,40.1 101.5,42.6 110.4,42.6 	"/>
	<polygon class="st2" points="110.4,104.1 101.4,104.1 99,106.5 96.5,104.1 93.6,102.6 96.4,101.3 99,98.8 101.5,101.3 110.4,101.3 
			"/>
	<path class="st1" d="M75,76.1h-1.3c-0.6,0-1-0.5-1-1v-5.2c0-0.6,0.5-1,1-1H75c0.6,0,1,0.5,1,1V75C76,75.6,75.5,76.1,75,76.1z"/>
	<path class="st0" d="M63.4,124.3V10c0,0-42.7,0.2-47.1,31.4v82.9H63.4z"/>
	<path class="st1" d="M52.4,73.4c4.2,0,7.5,3.3,7.5,7.4c0,4.1-3.4,7.4-7.5,7.4c-4.2,0-7.5-3.3-7.5-7.4
		C44.9,76.7,48.2,73.4,52.4,73.4z M52.3,85c2.4,0,4.3-1.9,4.3-4.3c0-2.4-1.9-4.3-4.3-4.3S48,78.4,48,80.7C48,83.1,49.9,85,52.3,85z"
		/>
	<polygon class="st2" points="16.3,45.5 25.3,45.5 27.8,47.9 30.2,45.5 33.1,44 30.3,42.6 27.8,40.1 25.2,42.6 16.3,42.6 	"/>
	<polygon class="st2" points="16.3,104.1 25.3,104.1 27.8,106.5 30.2,104.1 33.1,102.6 30.3,101.3 27.8,98.8 25.2,101.3 16.3,101.3 
			"/>
	<path class="st1" d="M51.7,76.1H53c0.6,0,1-0.5,1-1v-5.2c0-0.6-0.5-1-1-1h-1.3c-0.6,0-1,0.5-1,1V75C50.7,75.6,51.2,76.1,51.7,76.1z
		"/>
	<path class="st3" d="M6,43.1c9.3,1.4,8.9-1,8.9-1l2.5-6.6c0,0-3.7-3.7-7.6-4.5S6,43.1,6,43.1z"/>
	<path class="st3" d="M9.9,31.8c0,0,0.1-7.2,6.7-13.2c0,0,4.7,3.7,4.5,8.1s-3.7,9.5-3.7,9.5L9.9,31.8z"/>
	<path class="st3" d="M20.7,23.3c0,0,2.8,1.9,5.9-1.2s6.1-4.3,6.1-4.3s-0.1-7.4-2.1-9.1c-1.9-1.7-13.2,7.6-13.2,7.6
		S17.7,21.4,20.7,23.3z"/>
	<path class="st3" d="M32.7,16.2c0,0-0.1,1.1,3.1,0s3.2-1.1,3.2-1.1l7.1-2.5c0,0,1.3-6.6,0-9.7S31.3,7.6,31.3,7.6s-0.4,0.7-0.2,1.9
		S32.7,16.2,32.7,16.2z"/>
	<path class="st3" d="M46.6,10.3c0,0,0.8,1.8,7.9,0.9s7.8-0.9,7.8-0.9s0.9-7.4,0.4-8.1s-15.4,0-15.4,0s-0.6-0.1-0.9,1.5
		S46.6,10.3,46.6,10.3z"/>
	<path class="st3" d="M62.7,3.4c0,0-0.1-2.1,2.3-1.9s10-0.5,12.5,1c0,0-0.6,7.5-3.1,8.4s-11.7-0.7-11.7-0.7L62.7,3.4z"/>
	<path class="st3" d="M77.5,2.8c0,0,11.2,0.6,14.3,4.3c0,0-2.8,5.4-3.3,7c-0.5,1.6-4.5,0-4.5,0l-7.8-2.7c0,0-0.9-0.8-0.2-2.6
		S77.5,2.8,77.5,2.8z"/>
	<path class="st3" d="M91.3,8c0,0,3-1.3,7.7,3l5,4.4c0,0,1,2.1-3.6,3.8c0,0-0.8,0.6-2,1.5c-1.2,0.9-8.9-4.6-8.9-4.6s-0.7-0.2-1-2
		S91.3,8,91.3,8z"/>
	<path class="st3" d="M99.1,20.2c0,0,1.1,4.3,6.4,9.7c0,0,2.6-1,4.9-1.9s3.4-0.9,3.4-0.9s1.5,0,0.5-2.8c-1-2.8-7.8-8.2-7.8-8.2
		s-2.6-0.1-2.7,0.9C103.7,18,99.1,20.2,99.1,20.2z"/>
	<path class="st3" d="M106.5,29.9c0,0,0.1,2.4,1.1,3.8c1.1,1.4,2.7,8.7,2.7,8.7s5,1.1,8,0.9c3-0.2-3.3-15.9-3.3-15.9s0.8,0-1.3-0.3
		C111.8,26.8,106.5,29.9,106.5,29.9z"/>
	<path class="st3" d="M111,42.5c0,0-1.3,2.9-0.8,4c0,0,0,7.9,0.4,8.8s0.2,1.9,1.8,2c1.6,0.1,6.9,0,6.9,0s1.5,0,1-4.2
		s-1.8-9.9-1.8-9.9S116.1,42.2,111,42.5z"/>
	<path class="st3" d="M111.6,57.3c0,0-1.1,2-0.8,6.5c0.3,4.5,0.8,5.3,0.8,5.3s4.1,0.9,6.9,0.7c0,0,1.2-0.4,1.4-2.8s0.7-8,0-8.6
		c-0.7-0.6-1.4-1-1.4-1S114.1,57,111.6,57.3z"/>
	<path class="st3" d="M112.8,69.3c0,0-1.3,1.2-1.1,3.1c0.2,2-0.2,6.5,0,6.8s0.3,1.5,1.2,2s5.4,0.6,6.3,0.5c0.8-0.2,1.1-1.1,1.1-3.5
		c0-2.4,0.3-5.5,0-7.3c-0.3-1.8-4.2-1.2-4.2-1.2L112.8,69.3z"/>
	<path class="st3" d="M112.8,81.7c0,0-1.2,2.3-1.2,4s0.6,8.7,0.6,8.7s0.8,2.1,2.9,1.4c0,0,2.8-0.1,4.4-0.6c1.6-0.5,1-1.3,1-1.3
		s0.3-8.7,0-9.8c-0.3-1.1-1.5-1.9-2-1.9C117.8,82.3,112.8,81.7,112.8,81.7z"/>
	<path class="st3" d="M119.3,95.2c0,0,2.4,2.1,2.1,4.4c0,0-0.1,8.8-0.4,8.9c-0.3,0.1-1.3,1.7-3.2,1.5s-4.2-1.5-4.7-3
		s-0.7-6.5-0.6-8.1C112.5,98.9,113.1,95.4,119.3,95.2z"/>
	<path class="st3" d="M114,109.3c0,0-1.9,1.8-1.4,9.2c0.5,7.4,0.7,8.1,0.7,8.1h8.1c0,0,3.5-2.4,1.1-7.5c0,0-0.6-7.6-1.9-9
		C119.3,108.6,114,109.3,114,109.3z"/>
	<path class="st3" d="M5.5,56.9c0,0-1.1,2-0.8,6.5s0.8,5.3,0.8,5.3s4.1,0.9,6.9,0.7c0,0,1.2-0.4,1.4-2.8c0.2-2.4,0.7-8,0-8.6
		c-0.7-0.6-1.4-1-1.4-1S8,56.6,5.5,56.9z"/>
	<path class="st3" d="M6.7,69c0,0-1.3,1.2-1.1,3.1s-0.2,6.5,0,6.8c0.2,0.2,0.3,1.5,1.2,2s5.4,0.6,6.3,0.5c0.8-0.2,1.1-1.1,1.1-3.5
		c0-2.4,0.3-5.5,0-7.3c-0.3-1.8-4.2-1.2-4.2-1.2L6.7,69z"/>
	<path class="st3" d="M6.7,81.4c0,0-1.2,2.3-1.2,4c0,1.6,0.6,8.7,0.6,8.7S7,96.2,9,95.4c0,0,2.8-0.1,4.4-0.6s1-1.3,1-1.3
		s0.3-8.7,0-9.8s-1.5-1.9-2-1.9S6.7,81.4,6.7,81.4z"/>
	<path class="st3" d="M13.2,94.8c0,0,2.4,2.1,2.1,4.4c0,0-0.1,8.8-0.4,8.9s-1.3,1.7-3.2,1.5s-4.2-1.5-4.7-3
		c-0.4-1.6-0.7-6.5-0.6-8.1C6.4,98.5,7,95,13.2,94.8z"/>
	<path class="st3" d="M7.9,108.9c0,0-1.9,1.8-1.4,9.2c0.5,7.4,0.7,8.1,0.7,8.1h8.1c0,0,3.5-2.4,1.1-7.5c0,0-0.6-7.6-1.9-9
		S7.9,108.9,7.9,108.9z"/>
	<path class="st3" d="M12.5,57"/>
	<path class="st3" d="M13.8,54.6c0.3-1.3,0.4-7.3,0.4-8.7c0-1.4-1-2-1-2H7c0,0-1.1,0-1.5,1.8s-0.8,5.9-0.8,5.9s0.1,5.7,1.7,5.1
		l6.1,0.2C12.5,57,13,57.8,13.8,54.6z"/>
</g>
</svg>
