<?xml version="1.0" encoding="utf-8"?>
<!-- Generator: Adobe Illustrator 22.1.0, SVG Export Plug-In . SVG Version: 6.00 Build 0)  -->
<svg version="1.1" id="Слой_1" xmlns="http://www.w3.org/2000/svg" xmlns:xlink="http://www.w3.org/1999/xlink" x="0px" y="0px"
	 viewBox="0 0 1280 640" style="enable-background:new 0 0 1280 640;" xml:space="preserve">
<style type="text/css">
	.st0{fill:#F6F6F6;}
	.st1{fill:none;stroke:#DDDDDD;stroke-width:13;stroke-linecap:round;stroke-linejoin:round;stroke-miterlimit:10;}
	.st2{fill:none;stroke:#DDDDDD;stroke-width:6;stroke-linecap:round;stroke-linejoin:round;stroke-miterlimit:10;}
	.st3{fill:none;stroke:#DDDDDD;stroke-width:11;stroke-linecap:round;stroke-linejoin:round;stroke-miterlimit:10;}
</style>
<rect class="st0" width="1280" height="640"/>
<image style="overflow:visible;" width="1300" height="1300" xlink:href="A4DF1C6D.jpg"  transform="matrix(0.6862 0 0 0.6862 1379 67)">
</image>
<g>
	<path class="st1" d="M271,174.2H148.9c0,0-29.3,0-28.9-28.9c0,0-0.4-27.3,29.7-24.8s21.2,36.6,21.2,36.6"/>
	<path class="st1" d="M262.5,215.4h-85.8c0,0-20.6,0-20.3,20.3c0,0-0.3,19.2,20.9,17.4c0,0,18.1-1.7,18.1-18.8"/>
	<line class="st1" x1="156.2" y1="194.5" x2="259.6" y2="194.5"/>
</g>
<g>
	<path class="st2" d="M387,414.1h-60.6c0,0-14.6,0-14.4-14.4c0,0-0.2-13.5,14.8-12.3c15,1.2,10.5,18.2,10.5,18.2"/>
	<path class="st2" d="M382.8,434.6h-42.6c0,0-10.2,0-10.1,10.1c0,0-0.1,9.5,10.4,8.7c0,0,9-0.8,9-9.3"/>
	<line class="st2" x1="330" y1="424.2" x2="381.3" y2="424.2"/>
</g>
<g>
	<path class="st1" d="M1064,547.5H941.9c0,0-29.3,0-28.9,28.9c0,0-0.4,27.3,29.7,24.8s21.2-36.6,21.2-36.6"/>
	<path class="st1" d="M1055.5,506.2h-85.8c0,0-20.6,0-20.3-20.3c0,0-0.3-19.2,20.9-17.4c0,0,18.1,1.7,18.1,18.8"/>
	<line class="st1" x1="949.2" y1="527.1" x2="1052.6" y2="527.1"/>
</g>
<g>
	<path class="st2" d="M1180,307.6h-60.6c0,0-14.6,0-14.4,14.4c0,0-0.2,13.5,14.8,12.3c15-1.2,10.5-18.2,10.5-18.2"/>
	<path class="st2" d="M1175.8,287.1h-42.6c0,0-10.2,0-10.1-10.1c0,0-0.1-9.5,10.4-8.7c0,0,9,0.8,9,9.3"/>
	<line class="st2" x1="1123" y1="297.5" x2="1174.3" y2="297.5"/>
</g>
<g>
	<path class="st3" d="M913,134.4H809.5c0,0-24.8,0-24.5,24.5c0,0-0.3,23.1,25.2,21c25.5-2.1,17.9-31.1,17.9-31.1"/>
	<path class="st3" d="M905.8,99.5H833c0,0-17.5,0-17.2-17.2c0,0-0.2-16.2,17.7-14.8c0,0,15.3,1.4,15.3,15.9"/>
	<line class="st3" x1="815.7" y1="117.2" x2="903.3" y2="117.2"/>
</g>
<g>
	<path class="st3" d="M209,558.4H105.5c0,0-24.8,0-24.5,24.5c0,0-0.3,23.1,25.2,21c25.5-2.1,17.9-31.1,17.9-31.1"/>
	<path class="st3" d="M201.8,523.5H129c0,0-17.5,0-17.2-17.2c0,0-0.2-16.2,17.7-14.8c0,0,15.3,1.4,15.3,15.9"/>
	<line class="st3" x1="111.7" y1="541.2" x2="199.3" y2="541.2"/>
</g>
</svg>
