<svg version="1.1" id="Слой_1" xmlns="http://www.w3.org/2000/svg" x="0" y="0" viewBox="0 0 128 128" xml:space="preserve">
  <style>
    .st0,.st1,.st2,.st3{stroke:#000;stroke-miterlimit:10}.st0{stroke-linecap:round;stroke-linejoin:round;fill:#ddd;stroke-width:2}.st1,.st2,.st3{fill:#b2b2b2;stroke-width:.25}.st2,.st3{stroke-linecap:round;stroke-linejoin:round}.st3{stroke-width:.5}
  </style>
  <path class="st0" d="M63.4 124.3V10s42.7.2 47.1 31.4v82.9H63.4z"/>
  <path class="st1" d="M74.3 73.4c-4.2 0-7.5 3.3-7.5 7.4 0 4.1 3.4 7.4 7.5 7.4 4.2 0 7.5-3.3 7.5-7.4.1-4.1-3.3-7.4-7.5-7.4zm.1 11.6C72 85 70 83.1 70 80.7s1.9-4.3 4.3-4.3 4.3 1.9 4.3 4.3c.1 2.4-1.8 4.3-4.2 4.3z"/>
  <path class="st2" d="M110.4 45.5h-9L99 47.9l-2.5-2.4-2.9-1.5 2.8-1.4 2.6-2.5 2.5 2.5h8.9zM110.4 104.1h-9l-2.4 2.4-2.5-2.4-2.9-1.5 2.8-1.3 2.6-2.5 2.5 2.5h8.9z"/>
  <path class="st1" d="M75 76.1h-1.3c-.6 0-1-.5-1-1v-5.2c0-.6.5-1 1-1H75c.6 0 1 .5 1 1V75c0 .6-.5 1.1-1 1.1z"/>
  <path class="st0" d="M63.4 124.3V10s-42.7.2-47.1 31.4v82.9h47.1z"/>
  <path class="st1" d="M52.4 73.4c4.2 0 7.5 3.3 7.5 7.4 0 4.1-3.4 7.4-7.5 7.4-4.2 0-7.5-3.3-7.5-7.4 0-4.1 3.3-7.4 7.5-7.4zM52.3 85c2.4 0 4.3-1.9 4.3-4.3s-1.9-4.3-4.3-4.3-4.3 2-4.3 4.3c0 2.4 1.9 4.3 4.3 4.3z"/>
  <path class="st2" d="M16.3 45.5h9l2.5 2.4 2.4-2.4 2.9-1.5-2.8-1.4-2.5-2.5-2.6 2.5h-8.9zM16.3 104.1h9l2.5 2.4 2.4-2.4 2.9-1.5-2.8-1.3-2.5-2.5-2.6 2.5h-8.9z"/>
  <path class="st1" d="M51.7 76.1H53c.6 0 1-.5 1-1v-5.2c0-.6-.5-1-1-1h-1.3c-.6 0-1 .5-1 1V75c0 .6.5 1.1 1 1.1z"/>
  <path class="st3" d="M6 43.1c9.3 1.4 8.9-1 8.9-1l2.5-6.6s-3.7-3.7-7.6-4.5S6 43.1 6 43.1z"/>
  <path class="st3" d="M9.9 31.8s.1-7.2 6.7-13.2c0 0 4.7 3.7 4.5 8.1s-3.7 9.5-3.7 9.5l-7.5-4.4z"/>
  <path class="st3" d="M20.7 23.3s2.8 1.9 5.9-1.2 6.1-4.3 6.1-4.3-.1-7.4-2.1-9.1c-1.9-1.7-13.2 7.6-13.2 7.6s.3 5.1 3.3 7z"/>
  <path class="st3" d="M32.7 16.2s-.1 1.1 3.1 0l3.2-1.1 7.1-2.5s1.3-6.6 0-9.7-14.8 4.7-14.8 4.7-.4.7-.2 1.9 1.6 6.7 1.6 6.7z"/>
  <path class="st3" d="M46.6 10.3s.8 1.8 7.9.9 7.8-.9 7.8-.9.9-7.4.4-8.1-15.4 0-15.4 0-.6-.1-.9 1.5.2 6.6.2 6.6z"/>
  <path class="st3" d="M62.7 3.4s-.1-2.1 2.3-1.9 10-.5 12.5 1c0 0-.6 7.5-3.1 8.4s-11.7-.7-11.7-.7V3.4z"/>
  <path class="st3" d="M77.5 2.8s11.2.6 14.3 4.3c0 0-2.8 5.4-3.3 7-.5 1.6-4.5 0-4.5 0l-7.8-2.7s-.9-.8-.2-2.6 1.5-6 1.5-6z"/>
  <path class="st3" d="M91.3 8s3-1.3 7.7 3l5 4.4s1 2.1-3.6 3.8l-2 1.5c-1.2.9-8.9-4.6-8.9-4.6s-.7-.2-1-2S91.3 8 91.3 8z"/>
  <path class="st3" d="M99.1 20.2s1.1 4.3 6.4 9.7c0 0 2.6-1 4.9-1.9s3.4-.9 3.4-.9 1.5 0 .5-2.8-7.8-8.2-7.8-8.2-2.6-.1-2.7.9c-.1 1-4.7 3.2-4.7 3.2z"/>
  <path class="st3" d="M106.5 29.9s.1 2.4 1.1 3.8c1.1 1.4 2.7 8.7 2.7 8.7s5 1.1 8 .9c3-.2-3.3-15.9-3.3-15.9s.8 0-1.3-.3c-1.9-.3-7.2 2.8-7.2 2.8z"/>
  <path class="st3" d="M111 42.5s-1.3 2.9-.8 4c0 0 0 7.9.4 8.8s.2 1.9 1.8 2c1.6.1 6.9 0 6.9 0s1.5 0 1-4.2-1.8-9.9-1.8-9.9-2.4-1-7.5-.7z"/>
  <path class="st3" d="M111.6 57.3s-1.1 2-.8 6.5c.3 4.5.8 5.3.8 5.3s4.1.9 6.9.7c0 0 1.2-.4 1.4-2.8s.7-8 0-8.6c-.7-.6-1.4-1-1.4-1s-4.4-.4-6.9-.1z"/>
  <path class="st3" d="M112.8 69.3s-1.3 1.2-1.1 3.1c.2 2-.2 6.5 0 6.8s.3 1.5 1.2 2 5.4.6 6.3.5c.8-.2 1.1-1.1 1.1-3.5s.3-5.5 0-7.3c-.3-1.8-4.2-1.2-4.2-1.2l-3.3-.4zM112.8 81.7s-1.2 2.3-1.2 4 .6 8.7.6 8.7.8 2.1 2.9 1.4c0 0 2.8-.1 4.4-.6 1.6-.5 1-1.3 1-1.3s.3-8.7 0-9.8c-.3-1.1-1.5-1.9-2-1.9-.7.1-5.7-.5-5.7-.5z"/>
  <path class="st3" d="M119.3 95.2s2.4 2.1 2.1 4.4c0 0-.1 8.8-.4 8.9-.3.1-1.3 1.7-3.2 1.5s-4.2-1.5-4.7-3-.7-6.5-.6-8.1c0 0 .6-3.5 6.8-3.7z"/>
  <path class="st3" d="M114 109.3s-1.9 1.8-1.4 9.2c.5 7.4.7 8.1.7 8.1h8.1s3.5-2.4 1.1-7.5c0 0-.6-7.6-1.9-9-1.3-1.5-6.6-.8-6.6-.8zM5.5 56.9s-1.1 2-.8 6.5.8 5.3.8 5.3 4.1.9 6.9.7c0 0 1.2-.4 1.4-2.8.2-2.4.7-8 0-8.6-.7-.6-1.4-1-1.4-1s-4.4-.4-6.9-.1z"/>
  <path class="st3" d="M6.7 69s-1.3 1.2-1.1 3.1-.2 6.5 0 6.8c.2.2.3 1.5 1.2 2s5.4.6 6.3.5c.8-.2 1.1-1.1 1.1-3.5s.3-5.5 0-7.3c-.3-1.8-4.2-1.2-4.2-1.2L6.7 69zM6.7 81.4s-1.2 2.3-1.2 4c0 1.6.6 8.7.6 8.7S7 96.2 9 95.4c0 0 2.8-.1 4.4-.6s1-1.3 1-1.3.3-8.7 0-9.8-1.5-1.9-2-1.9-5.7-.4-5.7-.4z"/>
  <path class="st3" d="M13.2 94.8s2.4 2.1 2.1 4.4c0 0-.1 8.8-.4 8.9s-1.3 1.7-3.2 1.5-4.2-1.5-4.7-3c-.4-1.6-.7-6.5-.6-8.1 0 0 .6-3.5 6.8-3.7z"/>
  <path class="st3" d="M7.9 108.9s-1.9 1.8-1.4 9.2c.5 7.4.7 8.1.7 8.1h8.1s3.5-2.4 1.1-7.5c0 0-.6-7.6-1.9-9s-6.6-.8-6.6-.8zM13.8 54.6c.3-1.3.4-7.3.4-8.7 0-1.4-1-2-1-2H7s-1.1 0-1.5 1.8-.8 5.9-.8 5.9.1 5.7 1.7 5.1l6.1.2c0 .1.5.9 1.3-2.3z"/>
</svg>
