<svg xmlns="http://www.w3.org/2000/svg" viewBox="0 0 128 128"><path d="M87.8 52.2V28.9s-.3-12-12-12H52.3c-11.8 0-12 12-12 12v23.3" fill="none" stroke="#b2b2b2" stroke-width="8" stroke-miterlimit="10"/><path d="M92.3 52.3H35.7c-4.4 0-8 3.6-8 8v42.8c0 4.4 3.6 8 8 8h56.6c4.4 0 8-3.6 8-8V60.3c0-4.5-3.6-8-8-8zM42.6 96.2c0 .8-.7 1.5-1.5 1.5h-1.7c-.8 0-1.5-.7-1.5-1.5V77.7c0-.8.7-1.5 1.5-1.5h1.7c.8 0 1.5.7 1.5 1.5v18.5zm1.9-23.9c0 .8-.7 1.5-1.5 1.5h-5.5c-.8 0-1.5-.7-1.5-1.5v-5.5c0-.8.7-1.5 1.5-1.5H43c.8 0 1.5.7 1.5 1.5v5.5z" fill="#b2b2b2"/></svg>