<?xml version="1.0" encoding="utf-8"?>
<!-- Generator: Adobe Illustrator 22.1.0, SVG Export Plug-In . SVG Version: 6.00 Build 0)  -->
<svg version="1.1" id="Слой_1" xmlns="http://www.w3.org/2000/svg" xmlns:xlink="http://www.w3.org/1999/xlink" x="0px" y="0px"
	 viewBox="0 0 128 128" style="enable-background:new 0 0 128 128;" xml:space="preserve">
<style type="text/css">
	.st0{fill:#C32E2E;}
	.st1{fill:#FFFFFF;stroke:#FFFFFF;stroke-width:4;stroke-miterlimit:10;}
</style>
<path class="st0" d="M105.5,125.5h-82c-11,0-20-9-20-20v-82c0-11,9-20,20-20h82c11,0,20,9,20,20v82
	C125.5,116.5,116.5,125.5,105.5,125.5z"/>
<g>
	<polygon class="st1" points="86.6,104.6 88.5,98.1 82.3,98.1 79.6,104.6 	"/>
	<path class="st1" d="M75,98.1H47.2l7.9-17.8h11.1l-4,13.1h6.5L90,23.5H72.4l-34.3,81.1h34.1L75,98.1z M73.7,37.5h5.5L69.2,71.3
		h-9.5L73.7,37.5z"/>
</g>
</svg>
