<svg xmlns="http://www.w3.org/2000/svg" viewBox="0 0 128 128">
	<path d="M61.9 61.9C67.4 58.5 71 52.6 71 46c0-10.6-9.2-19.1-20.5-19.1S30 35.4 30 46c0 6.8 3.8 12.7 9.5 16.1-16.2 4.6-28 18.7-28 35.4 0 .8 0 1.7.1 2.5h78.8c.1-.8.1-1.7.1-2.5 0-16.9-12.1-31.2-28.6-35.6z" stroke="#000" stroke-width="3" stroke-linecap="round" stroke-linejoin="round" stroke-miterlimit="10"/>
	<path d="M120.5 95.5h-20c-2-30-25-35-25-35s12.6-9.4 5.3-25.7c0 0 17.6-5.7 24.6 8.5 0 0 5.5 10.4-2.7 20.3 0 0 18.8 7.9 17.8 31.9z" fill="none" stroke="#000" stroke-width="3" stroke-linecap="round" stroke-linejoin="round" stroke-miterlimit="10"/>
</svg>