<?xml version="1.0" encoding="utf-8"?>
<!-- Generator: Adobe Illustrator 22.1.0, SVG Export Plug-In . SVG Version: 6.00 Build 0)  -->
<svg version="1.1" id="Слой_1" xmlns="http://www.w3.org/2000/svg" xmlns:xlink="http://www.w3.org/1999/xlink" x="0px" y="0px"
	 viewBox="0 0 128 128" style="enable-background:new 0 0 128 128;" xml:space="preserve">
<style type="text/css">
	.st0{fill:#263B42;}
	.st1{fill:#FFFFFF;}
</style>
<g>
	<path class="st0" d="M6,108.2c-1.1,0-2-0.9-2-2V22.8c0-1.1,0.9-2,2-2h116c1.1,0,2,0.9,2,2v83.3c0,1.1-0.9,2-2,2H6z"/>
	<path class="st0" d="M122,22.8v83.3H6V22.8H122 M122,18.8H6c-2.2,0-4,1.8-4,4v83.3c0,2.2,1.8,4,4,4h116c2.2,0,4-1.8,4-4V22.8
		C126,20.6,124.2,18.8,122,18.8L122,18.8z"/>
</g>
<g>
	<path class="st1" d="M15.6,37.9c-1.9,0-3.4-1.5-3.4-3.4v-3.1c0-1.9,1.5-3.4,3.4-3.4H65c1.9,0,3.4,1.5,3.4,3.4v3.1
		c0,1.9-1.5,3.4-3.4,3.4H15.6z"/>
	<path class="st0" d="M65,28.1c1.8,0,3.3,1.5,3.3,3.3v3.1c0,1.8-1.5,3.3-3.3,3.3H15.6c-1.8,0-3.3-1.5-3.3-3.3v-3.1
		c0-1.8,1.5-3.3,3.3-3.3H65 M65,27.9H15.6c-1.9,0-3.5,1.6-3.5,3.5v3.1c0,1.9,1.6,3.5,3.5,3.5H65c1.9,0,3.5-1.6,3.5-3.5v-3.1
		C68.5,29.4,66.9,27.9,65,27.9L65,27.9z"/>
</g>
<g>
	<path class="st1" d="M83.3,37.9c-1.9,0-3.4-1.5-3.4-3.4v-3.1c0-1.9,1.5-3.4,3.4-3.4h8.8c1.9,0,3.4,1.5,3.4,3.4v3.1
		c0,1.9-1.5,3.4-3.4,3.4H83.3z"/>
	<path class="st0" d="M92.1,28.1c1.8,0,3.3,1.5,3.3,3.3v3.1c0,1.8-1.5,3.3-3.3,3.3h-8.8c-1.8,0-3.3-1.5-3.3-3.3v-3.1
		c0-1.8,1.5-3.3,3.3-3.3H92.1 M92.1,27.9h-8.8c-1.9,0-3.5,1.6-3.5,3.5v3.1c0,1.9,1.6,3.5,3.5,3.5h8.8c1.9,0,3.5-1.6,3.5-3.5v-3.1
		C95.6,29.4,94,27.9,92.1,27.9L92.1,27.9z"/>
</g>
<g>
	<path class="st1" d="M103.6,37.9c-1.9,0-3.4-1.5-3.4-3.4v-3.1c0-1.9,1.5-3.4,3.4-3.4h8.8c1.9,0,3.4,1.5,3.4,3.4v3.1
		c0,1.9-1.5,3.4-3.4,3.4H103.6z"/>
	<path class="st0" d="M112.4,28.1c1.8,0,3.3,1.5,3.3,3.3v3.1c0,1.8-1.5,3.3-3.3,3.3h-8.8c-1.8,0-3.3-1.5-3.3-3.3v-3.1
		c0-1.8,1.5-3.3,3.3-3.3H112.4 M112.4,27.9h-8.8c-1.9,0-3.5,1.6-3.5,3.5v3.1c0,1.9,1.6,3.5,3.5,3.5h8.8c1.9,0,3.5-1.6,3.5-3.5v-3.1
		C115.9,29.4,114.3,27.9,112.4,27.9L112.4,27.9z"/>
</g>
<g>
	<path class="st1" d="M15.6,101c-1.9,0-3.4-1.5-3.4-3.4V48.3c0-1.9,1.5-3.4,3.4-3.4h96.7c1.9,0,3.4,1.5,3.4,3.4v49.4
		c0,1.9-1.5,3.4-3.4,3.4H15.6z"/>
	<path class="st0" d="M112.4,45c1.8,0,3.3,1.5,3.3,3.3v49.4c0,1.8-1.5,3.2-3.3,3.2H15.6c-1.8,0-3.3-1.5-3.3-3.2V48.3
		c0-1.8,1.5-3.3,3.3-3.3H112.4 M112.4,44.8H15.6c-1.9,0-3.5,1.6-3.5,3.5v49.4c0,1.9,1.6,3.5,3.5,3.5h96.7c1.9,0,3.5-1.6,3.5-3.5
		V48.3C115.9,46.3,114.3,44.8,112.4,44.8L112.4,44.8z"/>
</g>
<g>
	<path class="st0" d="M65.4,67.3H18.7c-1.1,0-2-0.9-2-2v-14c0-1.1,0.9-2,2-2h46.7c1.1,0,2,0.9,2,2v14C67.4,66.4,66.5,67.3,65.4,67.3
		z"/>
</g>
<g>
	<path class="st0" d="M100.3,82H18.7c-0.8,0-1.5-0.7-1.5-1.5v-6.2c0-0.8,0.7-1.5,1.5-1.5h81.5c0.8,0,1.5,0.7,1.5,1.5v6.2
		C101.8,81.3,101.1,82,100.3,82z"/>
</g>
<g>
	<path class="st0" d="M100.3,96H18.7c-0.8,0-1.5-0.7-1.5-1.5v-6.2c0-0.8,0.7-1.5,1.5-1.5h81.5c0.8,0,1.5,0.7,1.5,1.5v6.2
		C101.8,95.3,101.1,96,100.3,96z"/>
</g>
</svg>
