<svg xmlns="http://www.w3.org/2000/svg" viewBox="0 0 128 128"><path d="M104 55.3c-2-7.1-6-13.5-11.3-18.3l5.2-12.8-18.1-9-6.9 12c-2.3-.4-4.6-.6-7-.6-3.4 0-6.7.4-9.8 1.2l-7.8-11.2-17.4 10.2L37.1 39c-4.3 4.6-7.5 10.2-9.3 16.4l-13.7 1.1v20.2l13.8.8c2.1 7 6 13.1 11.2 17.9l-5.2 12.8 18.1 8.9 6.9-12c2.3.4 4.6.6 7 .6 3.3 0 6.5-.4 9.6-1.2l8 11.5 17.5-10.2-6.4-12.5c4.3-4.5 7.5-10 9.3-16.1l13.9-1.1v-20l-13.8-.8zM65.9 84.7c-10.3 0-18.6-8.3-18.6-18.6s8.3-18.6 18.6-18.6 18.6 8.3 18.6 18.6-8.3 18.6-18.6 18.6z" fill="none" stroke="#b2b2b2" stroke-width="10" stroke-linecap="round" stroke-linejoin="round" stroke-miterlimit="10"/></svg>