<?xml version="1.0" encoding="utf-8"?>
<!-- Generator: Adobe Illustrator 22.1.0, SVG Export Plug-In . SVG Version: 6.00 Build 0)  -->
<svg version="1.1" id="Слой_1" xmlns="http://www.w3.org/2000/svg" xmlns:xlink="http://www.w3.org/1999/xlink" x="0px" y="0px"
	 viewBox="0 0 128 128" style="enable-background:new 0 0 128 128;" xml:space="preserve">
<style type="text/css">
	.st0{fill:#B2B2B2;}
	.st1{fill:#FFFFFF;}
</style>
<path class="st0" d="M121,125H7c-2.2,0-4-1.8-4-4V7c0-2.2,1.8-4,4-4h114c2.2,0,4,1.8,4,4v114C125,123.2,123.2,125,121,125z"/>
<path class="st1" d="M104.8,31.6c-1.1-3.2-3.3-3.2-3.3-3.2H89.3v-2.2H64h-0.2H38.5v2.2H26.3c0,0-2.2,0-3.3,3.2
	c-1.1,3.2,3.3,15.1,3.3,15.1s4.4,10.8,13.3,12.9c0,0,5.5,0,3.3,3.2c-2.2,3.2,2.2,2.2,2.2,2.2s2.2,0,3.3-2.2c0,0,5.5,5.4,10,5.4
	c0,0,3.3,5.4,0,23.7c0,0-5.5-1.1-8.9,2.2v2.2c0,0-4.4,1.1-5.5,3.2v2.2h19.8H64h19.8v-2.2c-1.1-2.2-5.5-3.2-5.5-3.2v-2.2
	C74.9,91,69.4,92,69.4,92c-3.3-18.3,0-23.7,0-23.7c4.4,0,10-5.4,10-5.4c1.1,2.2,3.3,2.2,3.3,2.2s4.4,1.1,2.2-2.2
	c-2.2-3.2,3.3-3.2,3.3-3.2c8.9-2.2,13.3-12.9,13.3-12.9S105.9,34.9,104.8,31.6z M26.3,34.9c0,0,0-3.2,3.3-3.2s8.9,0,8.9,0
	s1.1,21.6,6.6,25.9C45.2,57.5,30.8,58.6,26.3,34.9z M82.7,57.5c5.5-4.3,6.6-25.9,6.6-25.9s5.5,0,8.9,0c3.3,0,3.3,3.2,3.3,3.2
	C97.1,58.6,82.7,57.5,82.7,57.5z"/>
</svg>
