<svg xmlns="http://www.w3.org/2000/svg" viewBox="0 0 128 128">
  <path d="M43.6 68.6c-1.8-3.3-2.8-7-2.8-10.9 0-.6 0-1.1.1-1.7-1.7.4-3.5.6-5.3.6-7.6 0-14.4-3.7-18.6-9.4C7.8 56.8 1.9 69.6 1.1 83.8c1.2.4 14.6 4.8 28.7 5.3 1.5-8.6 6.7-16 13.8-20.5zM52.9 37.4c.3-1.4.5-2.9.5-4.4 0-10.1-8.2-18.4-18.4-18.4S16.7 22.9 16.7 33 25 51.4 35.1 51.4c2.5 0 4.9-.5 7.1-1.4 1.9-5.4 5.8-9.9 10.7-12.6z"/>
  <circle cx="64" cy="57.7" r="18.9"/>
  <path d="M46.4 72.7s-17.1 10.2-16 36.5c0 0 29.4 10.5 67.2 0 0 0 .5-25.7-16-36.5 0 0-16 18.1-35.2 0zM84.4 68.6c1.8-3.3 2.8-7 2.8-10.9 0-.6 0-1.1-.1-1.7 1.7.4 3.5.6 5.3.6 7.6 0 14.4-3.7 18.6-9.4 9.2 9.6 15.1 22.5 15.9 36.6-1.2.4-14.6 4.8-28.7 5.3-1.4-8.6-6.6-16-13.8-20.5zM75.1 37.4c-.3-1.4-.5-2.9-.5-4.4 0-10.1 8.2-18.4 18.4-18.4s18.4 8.2 18.4 18.4-8.3 18.4-18.4 18.4c-2.5 0-4.9-.5-7.1-1.4-1.9-5.4-5.8-9.9-10.8-12.6z"/>
</svg>
