<?xml version="1.0" encoding="utf-8"?>
<!-- Generator: Adobe Illustrator 22.1.0, SVG Export Plug-In . SVG Version: 6.00 Build 0)  -->
<svg version="1.1" id="Слой_1" xmlns="http://www.w3.org/2000/svg" xmlns:xlink="http://www.w3.org/1999/xlink" x="0px" y="0px"
	 viewBox="0 0 128 128" style="enable-background:new 0 0 128 128;" xml:space="preserve">
<style type="text/css">
	.st0{fill:#2E2E2E;}
	.st1{fill:#FFFFFF;}
</style>
<circle class="st0" cx="101.3" cy="97.9" r="20.1"/>
<path class="st0" d="M73.6,98.5H24.1c0,0-3.3,0.6-3.3-3.3s0-47.3,0-47.3h80.9v22.2c2.9,0.1,5.6,0.5,8.3,1.4V29.1
	c0,0-1.6-8.7-8.7-8.7c-1.7,0-7,0-14.1,0c0,0,0-6.4,0-8.1S84.9,10,84.9,10s-6.8,0-8.9,0s-2.8,2.8-2.8,2.8v7.7c-7.9,0-16.4,0-24.2,0
	c0,0,0-6.4,0-8.1S46.8,10,46.8,10s-6.8,0-8.9,0s-2.8,2.8-2.8,2.8v7.7c-8.5,0-14.3,0-14.3,0s-8.2,1.4-8.2,8.2s0,69.9,0,69.9
	s1.2,8,8,8c5.4,0,40.6,0,54.2,0C74.1,104,73.6,101.3,73.6,98.5z"/>
<path class="st0" d="M50,64.3h-6c-1.2,0-2.3-1-2.3-2.3v-6c0-1.2,1-2.3,2.3-2.3h6c1.2,0,2.3,1,2.3,2.3v6C52.3,63.2,51.2,64.3,50,64.3
	z"/>
<path class="st0" d="M64,64.3h-6c-1.2,0-2.3-1-2.3-2.3v-6c0-1.2,1-2.3,2.3-2.3h6c1.2,0,2.3,1,2.3,2.3v6C66.3,63.2,65.2,64.3,64,64.3
	z"/>
<path class="st0" d="M78,64.3h-6c-1.2,0-2.3-1-2.3-2.3v-6c0-1.2,1-2.3,2.3-2.3h6c1.2,0,2.3,1,2.3,2.3v6C80.3,63.2,79.2,64.3,78,64.3
	z"/>
<path class="st0" d="M92,64.3h-6c-1.2,0-2.3-1-2.3-2.3v-6c0-1.2,1-2.3,2.3-2.3h6c1.2,0,2.3,1,2.3,2.3v6C94.3,63.2,93.2,64.3,92,64.3
	z"/>
<path class="st0" d="M36,78.5h-6c-1.2,0-2.3-1-2.3-2.3v-6c0-1.2,1-2.3,2.3-2.3h6c1.2,0,2.3,1,2.3,2.3v6C38.3,77.5,37.2,78.5,36,78.5
	z"/>
<path class="st0" d="M50,78.5h-6c-1.2,0-2.3-1-2.3-2.3v-6c0-1.2,1-2.3,2.3-2.3h6c1.2,0,2.3,1,2.3,2.3v6C52.3,77.5,51.2,78.5,50,78.5
	z"/>
<path class="st0" d="M64,78.5h-6c-1.2,0-2.3-1-2.3-2.3v-6c0-1.2,1-2.3,2.3-2.3h6c1.2,0,2.3,1,2.3,2.3v6C66.3,77.5,65.2,78.5,64,78.5
	z"/>
<path class="st0" d="M78,78.5h-6c-1.2,0-2.3-1-2.3-2.3v-6c0-1.2,1-2.3,2.3-2.3h6c1.2,0,2.3,1,2.3,2.3v6C80.3,77.5,79.2,78.5,78,78.5
	z"/>
<path class="st0" d="M36,91.9h-6c-1.2,0-2.3-1-2.3-2.3v-6c0-1.2,1-2.3,2.3-2.3h6c1.2,0,2.3,1,2.3,2.3v6C38.3,90.9,37.2,91.9,36,91.9
	z"/>
<path class="st0" d="M50,91.9h-6c-1.2,0-2.3-1-2.3-2.3v-6c0-1.2,1-2.3,2.3-2.3h6c1.2,0,2.3,1,2.3,2.3v6C52.3,90.9,51.2,91.9,50,91.9
	z"/>
<path class="st0" d="M64,91.9h-6c-1.2,0-2.3-1-2.3-2.3v-6c0-1.2,1-2.3,2.3-2.3h6c1.2,0,2.3,1,2.3,2.3v6C66.3,90.9,65.2,91.9,64,91.9
	z"/>
<path class="st1" d="M110.9,106.8h-3.3c-0.6,0-1-0.4-1-1V89.9c0-0.6,0.4-1,1-1h3.3c0.6,0,1,0.4,1,1v15.9
	C111.9,106.4,111.5,106.8,110.9,106.8z"/>
<path class="st1" d="M102.9,106.8h-3.3c-0.6,0-1-0.4-1-1v-10c0-0.6,0.4-1,1-1h3.3c0.6,0,1,0.4,1,1v10
	C103.9,106.4,103.5,106.8,102.9,106.8z"/>
<path class="st1" d="M94.8,106.8h-3.3c-0.6,0-1-0.4-1-1v-5.5c0-0.6,0.4-1,1-1h3.3c0.6,0,1,0.4,1,1v5.5
	C95.8,106.4,95.4,106.8,94.8,106.8z"/>
</svg>
