<?xml version="1.0" encoding="utf-8"?>
<!-- Generator: Adobe Illustrator 22.1.0, SVG Export Plug-In . SVG Version: 6.00 Build 0)  -->
<svg version="1.1" id="Слой_1" xmlns="http://www.w3.org/2000/svg" xmlns:xlink="http://www.w3.org/1999/xlink" x="0px" y="0px"
	 viewBox="0 0 128 74" style="enable-background:new 0 0 128 74;" xml:space="preserve">
<style type="text/css">
	.st0{fill:#B1560F;}
	.st1{fill:none;stroke:#302C2C;stroke-width:4.5;}
	.st2{fill:#FFFFFF;}
</style>
<path class="st0" d="M18.6,0.7h90.9c10,0,18.2,8.1,18.2,18.2v36.3c0,10-8.1,18.2-18.2,18.2H18.6c-10,0-18.2-8.1-18.2-18.2V18.9
	C0.4,8.8,8.5,0.7,18.6,0.7z"/>
<path class="st1" d="M18.6,3h90.9c8.8,0,15.9,7.1,15.9,15.9v36.3c0,8.8-7.1,15.9-15.9,15.9H18.6C9.8,71.1,2.7,64,2.7,55.2V18.9
	C2.7,10.1,9.8,3,18.6,3z"/>
<g id="Group_97_1_" transform="translate(-494 -446)">
	<path id="Rectangle_927_1_" class="st2" d="M514.8,460.3c3.8,0,6.8,3.1,6.8,6.8v18.2c0,3.8-3.1,6.8-6.8,6.8c-3.8,0-6.8-3.1-6.8-6.8
		v-18.2C508,463.4,511.1,460.3,514.8,460.3z"/>
	<path id="Rectangle_928_1_" class="st2" d="M508,467.1c0-3.8,3.1-6.8,6.8-6.8h50c3.8,0,6.8,3.1,6.8,6.8c0,3.8-3.1,6.8-6.8,6.8h-50
		C511.1,474,508,470.9,508,467.1z"/>
</g>
</svg>
