<?xml version="1.0" standalone="no"?>
<!DOCTYPE svg PUBLIC "-//W3C//DTD SVG 1.1//EN" "http://www.w3.org/Graphics/SVG/1.1/DTD/svg11.dtd" >
<svg>
<metadata>
Created by FontForge 20090622 at Tue Dec 31 20:48:04 2013
 By ffonts
PeaxWebdesign
</metadata>
<defs>
<font id="PWMarker" horiz-adv-x="543" >
  <font-face 
    font-family="PWMarker"
    font-weight="500"
    font-stretch="normal"
    units-per-em="1000"
    panose-1="2 0 6 3 0 0 0 0 0 0"
    ascent="800"
    descent="-200"
    x-height="494"
    cap-height="724"
    bbox="-136.128 -299.276 923.946 804.303"
    underline-thickness="50"
    underline-position="-100"
    unicode-range="U+0020-U+3000"
  />
<missing-glyph horiz-adv-x="364" 
d="M66 33h199v600h-199v-600zM33 0v666h265v-666h-265z" />
    <glyph glyph-name=".notdef" horiz-adv-x="364" 
d="M66 33h199v600h-199v-600zM33 0v666h265v-666h-265z" />
    <glyph glyph-name=".null" horiz-adv-x="0" 
 />
    <glyph glyph-name="nonmarkingreturn" horiz-adv-x="333" 
 />
    <glyph glyph-name="space" unicode=" " horiz-adv-x="300" 
 />
    <glyph glyph-name="exclam" unicode="!" horiz-adv-x="276" 
d="M252 682q-10 -45 -16 -99.5t-8 -87t-5 -106.5l-4 -98q-1 -25 -19.5 -41.5t-43.5 -15.5t-41.5 19.5t-15.5 43.5q1 19 4 95t5.5 111t9.5 95q6 58 16 108q5 25 26 38.5t45.5 8.5t38 -26t8.5 -45zM227 79q0 -25 -17.5 -42.5t-42.5 -17.5t-42.5 17.5t-17.5 42.5t17.5 42.5
t42.5 17.5t42.5 -17.5t17.5 -42.5z" />
    <glyph glyph-name="quotedbl" unicode="&#x22;" horiz-adv-x="364" 
d="M154 682q-3 -25 -10 -70q-3 -19 -3 -26v-26q2 -41 3 -70q1 -25 -16 -43t-42 -19t-43 16t-19 42q-1 32 -3 69q-1 26 0 38t5 37q6 44 10 68q3 25 23 40t44.5 11.5t39.5 -23.5t11 -44zM339 710q-19 -79 -28 -228q-2 -24 -20.5 -40.5t-43 -15t-41 20t-15.5 43.5
q10 160 32 248q6 24 27 37t45 7t37 -27t7 -45z" />
    <glyph glyph-name="numbersign" unicode="#" horiz-adv-x="533" 
d="M305 274q1 45 3 90l-54 -9l-23 -4q-4 -46 -7 -98zM99 101l-63 -13q-25 -5 -45.5 9.5t-25 39t10 45t38.5 24.5q42 8 89 18q2 58 6 109q-34 -4 -64 -7q-24 -2 -43.5 14t-21.5 40.5t14 44t41 21.5q43 3 88 10q16 106 44 201q8 24 29.5 36t45.5 4.5t36 -29t5 -45.5
q-22 -74 -35 -147q42 6 73 10q10 75 28 149q5 24 26 37t45.5 7.5t37.5 -26.5t7 -46q-12 -53 -21 -107h2q25 1 43.5 -15t20 -41t-14.5 -43.5t-41 -20.5l-24 -2q-3 -36 -4 -72q24 5 44.5 -8t26.5 -36q6 -25 -6.5 -46t-36.5 -27l-26 -7q5 -67 16 -131q4 -25 -10 -45.5
t-38.5 -24.5t-45 10t-24.5 38q-11 60 -16 123l-90 -23q-1 -53 -1 -135q0 -25 -17.5 -42.5t-42.5 -17.5t-42.5 17.5t-17.5 42.5v107z" />
    <glyph glyph-name="dollar" unicode="$" horiz-adv-x="637" 
d="M433 709l-18 -42q-5 -10 -6 -15q-2 -5 -4 -16q9 -3 17 -7q26 -12 50 -40l14 -17q6 -8 10 -11q18 -18 18 -42.5t-17.5 -42.5t-42 -18t-42.5 17q-8 8 -18 20l-12 15q-9 9 -12 11q-17 11 -62 1q-46 -10 -88 -39q-41 -28 -56 -57q-8 -16 -2 -27h1q16 -8 45 -14q23 -4 72 -11
t64 -9q98 -15 153 -42q90 -43 111 -126q14 -55 -1.5 -99.5t-55.5 -75.5q-59 -44 -167 -55q-41 -4 -87 -3q-5 -34 -12 -112q-2 -25 -21 -41q-20 -16 -44.5 -14t-40.5 21.5t-14 43.5q8 83 13 113q-72 12 -113 31q-13 6 -28.5 15t-30.5 19l-18 13q-21 13 -26.5 37.5t7.5 45.5
t37.5 26.5t45.5 -7.5l25 -17q13 -9 21 -14t17 -10q33 -15 110 -25t147 -2q74 7 106 31q22 17 14 49q-7 29 -46.5 48t-120.5 32q-13 2 -65 9t-76 12q-92 19 -123 66q-43 68 -4 146q29 57 95 102q61 42 130 57q12 47 12 49q4 11 10 26l19 43q10 22 33 31.5t45.5 -0.5t32 -33
t-0.5 -46z" />
    <glyph glyph-name="percent" unicode="%" horiz-adv-x="805" 
d="M265 561q-3 -1 -7 -3q-41 -17 -44 -18q-3 -2 -4 -4q-6 -8 -7.5 -20t2.5 -22q3 -6 6 -7.5t16 0.5q9 2 23.5 18t21.5 37q3 10 2 15q-3 2 -9 4zM251 680q17 2 33 -1q72 -13 98 -70q22 -46 4 -104q-14 -44 -49 -83t-78 -51q-56 -15 -100 7t-64 68q-17 37 -12 83t33 81
q17 22 48 41q2 1 14 8.5t19 12.5q25 18 54 8zM631 182q-3 -1 -9 -7l-9 -17l-5 -10q-2 -3 -4 -6.5t-3 -8.5q-5 -35 -2 -50.5t9 -23.5q15 5 37 31q11 13 15.5 35t-1.5 42q-3 13 -8 16q-4 4 -20 -1zM491 181q-7 37 23 59q4 3 11 9l15 14q28 25 55 33q68 21 119 -11
q45 -28 61 -85q13 -44 3 -97.5t-41 -90.5q-47 -55 -99 -69q-61 -16 -107 24q-38 32 -49.5 88t3.5 106q2 9 6 20zM132 -13q119 207 232 372.5t245 305.5q17 18 42 19t43 -16t19 -42t-16 -43q-126 -134 -235.5 -293.5t-225.5 -362.5q-12 -21 -36 -27.5t-45.5 5.5t-28 36
t5.5 46z" />
    <glyph glyph-name="ampersand" unicode="&#x26;" horiz-adv-x="683" 
d="M220 482l13 14l13 14l12 12l11 15t9 14q8 14 8 20l-8 8q-13 10 -39 14.5t-51 -0.5q-17 -4 -21 -10q-4 -4 1 -21q7 -26 52 -80zM450 244q13 35 41 164q6 24 27 37.5t45 8t37.5 -26.5t8.5 -45q-3 -10 -9 -38l-9 -41l-9 -37q-6 -25 -11.5 -41.5t-13.5 -37.5t-18 -40
l106 -120q17 -18 15 -43t-20.5 -41.5t-43.5 -14.5t-41 21l-85 96l-7 -8q-36 -38 -98 -57t-126 -18q-31 0 -61 6t-61 18t-56 35t-38 54q-58 136 38 251q24 29 73 72q-67 79 -82 130q-20 72 16 124q31 44 92 58q46 12 100.5 2t91.5 -39q50 -39 53 -94q3 -43 -23 -89
q-7 -11 -15.5 -23t-18.5 -23l-18 -20q-7 -8 -17 -18l-12 -13zM215 309q-43 -38 -62 -60q-25 -30 -31 -57q-5 -26 11 -69q7 -16 34.5 -28t73.5 -13q45 -1 82.5 10.5t51.5 26.5q7 8 14 15l-20 21q-19 20 -70 70z" />
    <glyph glyph-name="quotesingle" unicode="'" horiz-adv-x="222" 
d="M186 683q0 -76 13 -260q2 -25 -15 -43q-16 -19 -41 -21t-43.5 14.5t-20.5 41.5q-13 188 -13 268q0 25 17.5 42.5t42.5 17.5t42.5 -17.5t17.5 -42.5z" />
    <glyph glyph-name="parenleft" unicode="(" horiz-adv-x="312" 
d="M280 668q-59 -97 -96 -208t-48.5 -224t10 -226t76.5 -205q12 -22 6 -46t-27.5 -36.5t-45.5 -6.5t-37 27q-65 111 -90.5 243t-11.5 261.5t55.5 252.5t106.5 230q13 21 37 27t45 -7t27 -37t-7 -45z" />
    <glyph glyph-name="parenright" unicode=")" horiz-adv-x="297" 
d="M72 720q3 -2 19.5 -16t31.5 -29t25 -28q46 -62 76 -149.5t41 -178.5t8.5 -180.5t-20.5 -161.5q-7 -30 -19 -65t-21 -56l-27 -62l-22 -51q-9 -23 -32.5 -32.5t-46 0t-32 33t0.5 45.5q6 16 23 55l25 58q8 18 18.5 48t16.5 55q15 63 17 141.5t-8 156.5t-34.5 151t-59.5 121
q-7 10 -14.5 17t-21 18t-26.5 24q-18 17 -19 42t16.5 42.5t42.5 18.5t42 -17z" />
    <glyph glyph-name="asterisk" unicode="*" horiz-adv-x="413" 
d="M373 586l-63 -60l-4 -3q16 -16 53 -45q19 -16 21.5 -40.5t-13 -44t-40 -22t-44.5 12.5q-56 46 -77 71q-5 6 -9 12q-25 -33 -46 -65q-13 -20 -37.5 -25.5t-45 8t-26 38t8.5 45.5q16 25 34 50q-25 12 -50 28q-21 13 -26.5 37.5t7.5 45.5t37.5 26.5t45.5 -7.5q23 -15 46 -26
q0 25 10 94q3 24 22.5 39.5t44 12t40 -23t11.5 -44.5l-6 -51l20 21q17 18 42 18t43 -17t18 -42t-17 -43z" />
    <glyph glyph-name="plus" unicode="+" horiz-adv-x="554" 
d="M62 306q70 -3 143 0q1 95 8 198q2 25 20.5 41.5t43.5 14.5t41.5 -20.5t14.5 -43.5q-6 -95 -8 -182q135 10 142 11q25 2 43.5 -14.5t20.5 -41.5t-14.5 -43.5t-41.5 -20.5q-28 -2 -82 -6.5t-69 -5.5q1 -72 6 -140q1 -25 -15 -43.5t-41 -20t-43.5 14.5t-20.5 41
q-4 69 -6 141q-79 -3 -148 0q-25 1 -41.5 19.5t-15.5 43.5t19.5 41.5t43.5 15.5z" />
    <glyph glyph-name="comma" unicode="," horiz-adv-x="237" 
d="M25 -127q31 62 46 106q16 47 24 106q3 25 22.5 40t44.5 11.5t40 -23t11 -44.5q-9 -70 -28 -126.5t-52 -123.5q-12 -22 -35.5 -30t-45.5 3.5t-30 35t3 45.5z" />
    <glyph glyph-name="hyphen" unicode="-" horiz-adv-x="448" 
d="M21 335q75 -6 111 -6t112.5 3t120.5 3q25 0 42.5 -17.5t17.5 -42.5t-17.5 -42.5t-42.5 -17.5q-34 0 -107 -3t-135 -2.5t-116 5.5q-24 3 -39.5 22.5t-13 44t22 40t44.5 13.5z" />
    <glyph glyph-name="period" unicode="." horiz-adv-x="159" 
d="M136 32q0 -25 -17.5 -42.5t-42.5 -17.5t-42.5 17.5t-17.5 42.5t17.5 42.5t42.5 17.5t42.5 -17.5t17.5 -42.5z" />
    <glyph glyph-name="slash" unicode="/" horiz-adv-x="368" 
d="M339 719q-76 -164 -137 -339.5t-135 -419.5q-7 -24 -29 -36t-45.5 -4.5t-35.5 29.5t-4 45q74 248 136 427t142 348q10 23 33.5 31.5t46 -2t31 -34t-2.5 -45.5z" />
    <glyph glyph-name="zero" unicode="0" horiz-adv-x="554" 
d="M401 607q-3 0 -10 -1q-28 -7 -73 -38q-20 -13 -43 -9q-57 -49 -97 -139q-40 -88 -59 -187q-15 -76 0 -135q6 -25 15 -33q7 -5 26 1q40 11 83 57t82 118q36 67 58.5 137.5t26.5 120.5q7 84 -9 108zM324 709q21 9 41 14q66 14 111 -22q66 -53 54 -212q-5 -63 -32 -146
q-26 -82 -67 -159q-46 -86 -107 -150q-60 -64 -132 -84q-78 -21 -132 21q-42 33 -58 99q-20 84 -1 185q14 71 36.5 138.5t66 141.5t98.5 119q13 11 33.5 21.5t40.5 18.5l20 9q13 6 28 6z" />
    <glyph glyph-name="one" unicode="1" horiz-adv-x="388" 
d="M49 493q120 113 134 128q2 2 3 4t5 9l10 18q36 56 90 51q32 -3 49.5 -24t22.5 -45q5 -27 -1 -64q-4 -22 -12 -50l-5 -17q-1 -2 -1 -3q-12 -61 -19 -135.5t-8.5 -127.5t-3 -144t-2.5 -137q-1 -25 -19 -42t-43 -16t-42 19t-16 43q1 26 2.5 155t7 211.5t19.5 162.5l-89 -84
q-18 -17 -43 -16t-42 19t-16 43t19 42z" />
    <glyph glyph-name="two" unicode="2" horiz-adv-x="667" 
d="M-32 409q1 4 1 11q-1 18 -1 19q1 37 14 62q38 73 116 123t159 69q69 17 113 7q41 -10 67 -41t30 -80q4 -55 -34 -130q-27 -54 -79 -127q-34 -47 -91 -118q-58 -72 -67 -84l-29 -39q202 43 419 36q25 -1 42 -19t16 -43t-19 -42t-43 -16q-203 6 -391 -34q-38 -10 -70 -13
q-36 -3 -62 4q-22 7 -40.5 24t-21.5 46q-7 47 35 87q6 6 11.5 10.5t7.5 6t3.5 3.5t3.5 4l42 57q9 12 66 83t91 117q46 64 68 110q24 47 22 69q-1 14 -4 12q-17 3 -58 -6q-61 -15 -116.5 -50.5t-79.5 -80.5q-1 -2 -1 -8v-5q0 -3 0.5 -6t0.5 -5q0 -15 -1 -25q-3 -25 -22 -40.5
t-44 -13t-40.5 21.5t-13.5 44z" />
    <glyph glyph-name="three" unicode="3" horiz-adv-x="568" 
d="M12 546q0 1 4 10t8.5 18t11.5 21t13 20q31 38 77 65t97 38q47 13 105.5 3.5t101.5 -45.5q91 -74 63 -166q-14 -46 -65 -96q34 -10 58 -29q55 -43 59 -127q4 -80 -48 -149t-128 -109q-49 -27 -101 -38t-109.5 2t-98.5 56q-18 19 -27 51q-1 0 -5 16l-3 9q-9 23 1 45.5
t33 32t45.5 -0.5t32.5 -33q3 -8 7 -21q0 -1 1 -4t1.5 -5t1.5 -5q0 -2 1 -4q21 -24 66 -24t97 28q53 29 84 70.5t29 76.5q-1 30 -13 39q-11 9 -39 10q-21 1 -68 -4q-23 -2 -34 -2q-34 0 -55 16q-24 20 -25 49q-1 31 22 52q13 11 36 19l11 3q7 3 11 4q3 1 5 2q22 16 47 39
q49 45 55 67q5 14 -24 38q-39 31 -105 17q-69 -15 -106 -62q-4 -5 -6.5 -9.5t-7 -15t-11.5 -24.5q-11 -22 -35 -29.5t-46 4t-29.5 35.5t4.5 46z" />
    <glyph glyph-name="four" unicode="4" horiz-adv-x="572" 
d="M290 251q0 96 11 214l-109 -148l-53 -75l-4 -7q15 0 37 2q40 3 108 13zM354 706q18 11 39 8q25 -3 40 -22.5t11 -44.5q-33 -246 -34 -380q53 7 75 9q25 2 43.5 -14.5t20.5 -41.5t-14.5 -43.5t-41.5 -20.5q-23 -1 -79 -9q7 -76 23 -146q5 -24 -8.5 -45t-37.5 -26.5t-45 8
t-27 37.5q-16 75 -24 156q-71 -10 -113 -13q-62 -6 -88 0q-31 7 -46 14q-45 20 -57 61q-6 17 -1 34l4 10q2 4 5 9q4 7 11 18l30 46l54 77l220 296q15 20 40 23z" />
    <glyph glyph-name="five" unicode="5" horiz-adv-x="569" 
d="M60 133q9 -3 25.5 -9.5t23 -8.5t18 -6t19 -5t18 -2t23.5 -1q42 0 92 16.5t78 39.5q37 31 49 89q11 54 -15 82q-19 21 -58 17q-41 -5 -109 -38l-60 -31q-39 -21 -56 -29q-34 -15 -57 -19q-49 -10 -80 19q-34 31 -23 87q4 27 21 64q13 29 60 112q20 35 51 79q25 37 42 58
q-12 16 -11 37q1 24 19 41.5t43 16.5q35 -1 99.5 -1.5t118 -2t99.5 -4.5q25 -2 41.5 -20.5t14.5 -43.5t-20.5 -41.5t-43.5 -14.5q-68 5 -222 6l-13 -14l-11 -12q-3 -2 -9 -9l-9 -11q-3 -3 -8 -10l-9 -12l-10 -13l-13 -18q-28 -41 -45 -71l-43 -77l82 42q86 41 147 49
q99 11 160 -54q24 -26 36.5 -59.5t13 -65t-4.5 -63.5q-10 -46 -33.5 -87.5t-57.5 -69.5q-46 -38 -115.5 -61t-130.5 -23q-22 0 -40.5 1.5t-39 7t-28.5 8t-32.5 12t-28.5 11.5q-23 8 -33.5 31t-2 46t31.5 33.5t46 1.5z" />
    <glyph glyph-name="six" unicode="6" 
d="M76 160q11 -83 82 -114q69 -30 138 28q34 29 60 72q25 41 37 86q9 32 8 54q-1 21 -5 30.5t-8 13.5q-7 4 -20.5 5.5t-54 -11t-94.5 -43.5q-73 -43 -143 -121zM392 590q-12 3 -24.5 7.5t-17.5 6.5l-12 3q-6 2 -9.5 1.5t-8 -2t-11.5 -4.5q-51 -22 -107.5 -92t-91.5 -157
q23 17 49 32q198 115 299 42q34 -25 49.5 -66.5t14 -80t-12.5 -78.5q-16 -61 -51.5 -119.5t-83.5 -99.5q-37 -31 -77 -48t-89 -19.5t-98 20.5q-64 28 -101.5 77t-47.5 107.5t-4 116.5t25 118q39 116 116 217.5t163 139.5q22 10 42.5 14t40 1t30.5 -5t31 -9.5t23 -8.5
q24 -7 35.5 -29t4 -46t-29.5 -35.5t-46 -3.5z" />
    <glyph glyph-name="seven" unicode="7" horiz-adv-x="589" 
d="M94 665q39 -1 82.5 4t75.5 11q18 3 87 17q58 12 110 20q23 3 37 5q8 1 14 1h10q7 0 13 -2q4 -1 9.5 -3.5t16.5 -13.5t15 -26q5 -17 -1 -36q-2 -7 -6 -16q-5 -10 -14 -25q-14 -22 -39 -57l-71 -96q-77 -107 -134.5 -229t-82.5 -240q-5 -25 -26 -38.5t-45.5 -8.5t-38 26
t-8.5 45q28 132 91 265.5t146 249.5l49 65l-21 -4q-58 -12 -90.5 -18t-83.5 -11.5t-97 -4.5q-25 0 -42 18t-17 43t18 42t43 17z" />
    <glyph glyph-name="eight" unicode="8" horiz-adv-x="579" 
d="M174 549v-1l2 -2l4 -2l6 -4l7 -6q4 -3 11 -6l13 -8q14 -8 83 -43q37 33 62 67q24 33 31 57q5 15 1 20t-23 8q-32 4 -77 -6q-44 -11 -81 -30q-29 -15 -34 -25q-7 -11 -5 -19zM182 402l-24 13q-74 41 -94 84q-9 22 -10 46.5t4.5 44t14.5 36.5q23 41 83 73q51 27 111 41
q66 15 120 8q75 -10 109 -63q32 -51 12 -118q-13 -45 -50 -95q-21 -28 -49 -57q120 -78 142 -177q15 -69 -11 -117q-29 -54 -86 -89q-57 -34 -127 -51q-64 -16 -127 -17q-64 0 -116 16q-5 1 -19 5q-18 4 -28 7q-51 18 -69 58q-35 74 8 156q29 56 98 115q43 38 108 81z
M309 336q-5 -1 -10 -1q-96 -60 -147 -104q-51 -45 -70 -81q-13 -25 -8 -43l1 -1q6 -2 19 -5q19 -4 26 -7q29 -10 79 -9.5t100 12.5q51 13 86.5 34.5t48.5 45.5q5 10 -1 35q-13 60 -124 124z" />
    <glyph glyph-name="nine" unicode="9" horiz-adv-x="578" 
d="M434 519q0 4 -1 8q-10 84 -72 114q-67 33 -139 -23q-35 -28 -62.5 -70t-40.5 -85q-9 -30 -9.5 -52.5t3 -32t7.5 -12.5q6 -5 19.5 -7t55 9.5t95.5 41.5q76 41 144 109zM107 106q2 -1 32 -14q10 -4 13 -4q58 -6 128 59q73 70 118 180l4 10q-26 -17 -54 -33
q-203 -109 -301 -33q-34 26 -47 68q-14 42 -11 80.5t15 78.5q18 60 56 117.5t88 96.5q37 29 77.5 45t90.5 15.5t97 -23.5q63 -31 97 -85.5t42 -122.5q14 -119 -43 -259q-55 -134 -147 -222q-109 -103 -222 -92q-22 3 -47 13q-2 1 -11 5t-15 6q-24 9 -34.5 31.5t-2 46t31 34
t45.5 2.5z" />
    <glyph glyph-name="colon" unicode=":" horiz-adv-x="220" 
d="M188 440q0 -25 -17.5 -42.5t-42.5 -17.5t-42.5 17.5t-17.5 42.5t17.5 42.5t42.5 17.5t42.5 -17.5t17.5 -42.5zM197 55q0 -25 -17.5 -42.5t-42.5 -17.5t-42.5 17.5t-17.5 42.5t17.5 42.5t42.5 17.5t42.5 -17.5t17.5 -42.5z" />
    <glyph glyph-name="semicolon" unicode=";" horiz-adv-x="247" 
d="M27 -121q47 58 58 85t19 100q3 25 22.5 40.5t44 13t40 -22t13.5 -43.5q-10 -91 -28 -134t-77 -115q-15 -19 -40 -21.5t-44 13t-21.5 40.5t13.5 44zM185 422q0 -25 -17.5 -42.5t-42.5 -17.5t-42.5 17.5t-17.5 42.5t17.5 42.5t42.5 17.5t42.5 -17.5t17.5 -42.5z" />
    <glyph glyph-name="less" unicode="&#x3c;" horiz-adv-x="568" 
d="M510 405q-204 -93 -367 -157q-9 -3 -23 -7q13 -5 24 -11l60 -30l66 -34l59 -31l65 -35l58 -33q33 -19 61 -37q21 -13 26.5 -37.5t-7.5 -45.5t-37.5 -26.5t-45.5 7.5l-67 40q-33 20 -78 44l-65 34l-80 42q-60 31 -69 36q-46 17 -70 35q-35 26 -44 62q-12 46 21 90
q23 30 69 41q9 3 16.5 4t10.5 2l6 2q160 63 361 155q23 10 46 1.5t33.5 -31.5t2 -46t-31.5 -34z" />
    <glyph glyph-name="equal" unicode="=" horiz-adv-x="534" 
d="M20 420q66 1 206 10t213 9q25 0 42.5 -17.5t17.5 -42.5t-17.5 -42.5t-42.5 -17.5q-61 0 -205 -9t-212 -10q-25 0 -43 17.5t-18 42t17.5 42.5t41.5 18zM4 165q75 -1 224 2.5t224 2.5q25 0 42 -18t17 -43t-18 -42t-43 -17q-74 1 -223.5 -2.5t-224.5 -2.5q-25 0 -42 18
t-17 43t18 42t43 17z" />
    <glyph glyph-name="greater" unicode="&#x3e;" horiz-adv-x="603" 
d="M66 515q65 -32 186 -84l163 -71q21 -10 80 -35l35 -14l12 -6q4 -2 7 -3q5 -3 8 -6q6 -4 10 -9q14 -18 13 -41q-1 -22 -16 -37q-4 -6 -10 -10q-4 -3 -10.5 -6.5t-16.5 -7.5l-40 -16q-71 -27 -85 -33q-203 -88 -324 -168q-21 -14 -45 -9t-38 26t-9 45t26 38q130 86 342 178
l11 5l-165 71q-122 53 -186 85q-23 11 -31 34.5t3 46t34 30.5q24 8 46 -3z" />
    <glyph glyph-name="question" unicode="?" 
d="M18 497v11q-1 18 -1 19q-2 34 8 59q25 60 104 104q70 39 148 51q92 13 155 -18q40 -19 63.5 -56t24.5 -87q1 -59 -29.5 -105.5t-79.5 -89.5q-19 -18 -50 -42.5t-48.5 -40.5t-28.5 -32q-5 -6 -6.5 -11t-5.5 -16.5t-11 -26.5q-10 -23 -33.5 -32t-46 1t-31.5 33.5t1 45.5
q1 1 4.5 11t7.5 20t10.5 23.5t12.5 21.5q17 22 42 46t60.5 52.5t43.5 36.5q69 61 68 103q-1 28 -21 38q-30 14 -84 6q-58 -8 -107 -36q-42 -24 -51 -45q-1 -3 0 -9v-6v-6q0 -3 1 -5v-24q-1 -24 -19.5 -41t-43 -16t-41.5 19.5t-16 43.5zM245 49q0 -25 -17.5 -42.5
t-42.5 -17.5t-42.5 17.5t-17.5 42.5t17.5 42.5t42.5 17.5t42.5 -17.5t17.5 -42.5z" />
    <glyph glyph-name="at" unicode="@" horiz-adv-x="946" 
d="M409 270q6 5 13 12q24 25 60 86q1 1 6 19q-22 -8 -42 -30q-27 -29 -35 -63q-4 -15 -2 -24zM497 187q-34 -31 -70 -38q-64 -14 -110 42q-43 53 -22 133q16 62 63 114q52 57 116 70q83 16 147 -46q16 -16 29 -42l7 -15q3 -6 4 -9q12 -22 5.5 -46t-27.5 -36q-14 -8 -29 -8
l-7 -25q-5 -25 -2 -34q2 -6 22 -12q16 -5 51 22q46 35 83 99q39 65 45 122q6 51 -16 74q-71 72 -193 60t-241 -99q-121 -88 -164 -199q-44 -110 12 -212q44 -76 128 -94q50 -11 137 -7q61 3 113.5 19.5t123.5 49.5q23 11 46.5 2.5t34 -31t2 -46t-30.5 -33.5
q-80 -38 -144 -57.5t-139 -23.5q-105 -5 -169 9q-134 30 -206 150q-46 78 -49.5 162t29.5 158t85 138q52 62 120 112q67 48 143 80q76 31 156 41.5t157.5 -13t134.5 -82.5q62 -65 50 -171q-10 -83 -61 -170q-49 -84 -114 -134q-84 -64 -158 -42q-65 20 -92 68z" />
    <glyph glyph-name="A" unicode="A" horiz-adv-x="621" 
d="M-5 23q88 337 194 555q17 35 40 73q17 28 31 45q10 13 20 21q24 19 51 18q56 -3 90 -63q19 -32 31 -84q8 -33 13 -75q1 -12 3 -25v-6q45 -243 127 -477q8 -24 -3 -46.5t-35 -31.5q-25 -8 -49 4q-9 4 -16 10q-72 65 -116 91q-43 26 -124 45q-25 6 -38 27.5t-7 46
t27.5 37.5t45.5 7q85 -20 142 -50q-44 156 -74 315q-1 3 -1 8l-1 8q-1 12 -2 22q-5 35 -11 63q-2 9 -5 18q-16 -29 -29 -55q-102 -211 -186 -531q-6 -25 -28 -37.5t-46.5 -6.5t-37 28t-6.5 46z" />
    <glyph glyph-name="B" unicode="B" horiz-adv-x="693" 
d="M551 213q1 -3 3 -1q-1 0 -3 1zM-98 682q60 23 162 44q98 20 200 25q125 6 208 -17q116 -30 160 -111q33 -61 -7 -125q-23 -39 -76 -78q-33 -25 -85 -54q11 0 20 -1q60 -6 91 -22q52 -29 73 -53q37 -45 14 -98q-10 -24 -45 -61q-58 -61 -60 -64q-8 -9 -20 -18t-20.5 -14.5
t-19 -11t-11.5 -6.5q-36 -23 -126 -67q-23 -11 -47 -3t-35 31t-3 47t31 35q84 41 116 61q9 6 18 11l12 7q4 2 7.5 4.5t5.5 5.5l63 66l8 9q-9 6 -19 11q-9 5 -44 8q-31 3 -87 3q-81 1 -87 1q-22 1 -36 3q-31 4 -48 20q-16 15 -18.5 34.5t0.5 27.5t6 14q4 7 11 14q4 4 9.5 8
t15.5 10l40 24l58 34l39 21l54 31q25 14 46 30q34 25 45 43q2 3 3 5q-20 33 -83 50q-68 18 -171 13q-39 -1 -82 -6v-2q-76 -297 -42 -635q2 -25 -14 -44.5t-41 -22t-44.5 13.5t-22.5 41q-32 331 34 626q-69 -15 -110 -32q-24 -9 -47 1t-32.5 33.5t0.5 46.5t33 33z" />
    <glyph glyph-name="C" unicode="C" horiz-adv-x="668" 
d="M527 503q-24 61 -45 80q-23 22 -79 28q-112 13 -191 -59q-78 -71 -103 -188q-24 -114 14 -194.5t118 -89.5q76 -10 154 20q15 6 27.5 12t27.5 16l20 16q7 5 27.5 22.5t28.5 23.5q20 16 45 13.5t41 -22t13.5 -44.5t-21.5 -41l-27 -22q-22 -19 -31 -26t-28.5 -21t-38 -23.5
t-40.5 -17.5q-106 -41 -212 -28q-54 7 -97 29.5t-71 56t-47 75.5t-26 88t-6 92.5t10 90.5q12 56 35.5 108t61.5 98.5t85.5 79.5t110.5 48.5t134 8.5q95 -11 148 -60q42 -39 76 -126q9 -23 -1 -46.5t-33.5 -32.5t-47 1t-32.5 34z" />
    <glyph glyph-name="D" unicode="D" horiz-adv-x="703" 
d="M-69 642q100 50 182 66.5t191 0.5q85 -12 165 -57q81 -45 135 -112q39 -49 59 -103t17 -119t-36 -127q-17 -33 -38 -61t-47.5 -52.5t-47.5 -42t-56 -38.5l-53 -31l-55 -31q-22 -12 -46.5 -4.5t-36.5 29.5t-4.5 46.5t29.5 36.5q59 32 81 45q28 17 63.5 42.5t60 54
t42.5 62.5q58 110 -27 216q-40 49 -100 83t-123 43q-37 5 -68 6q-1 -3 -1 -6q-57 -264 -61 -635q0 -25 -18 -42.5t-43.5 -17.5t-43 18t-17.5 44q4 358 56 621q-45 -14 -103 -43q-23 -12 -47 -4t-35.5 30.5t-3.5 46.5t30 35z" />
    <glyph glyph-name="E" unicode="E" horiz-adv-x="603" 
d="M418 639h-109q-35 -2 -57 -5q-10 -1 -17 -3q-9 -11 -18 -38l-8 -27q-4 -13 -7.5 -27t-4.5 -20q-24 -88 -35 -137q64 3 140 14q25 4 45.5 -11t24 -40t-11.5 -45.5t-40 -23.5q-96 -14 -178 -17q-1 -12 -1 -24q-10 -159 65 -187q35 -13 61 -6q12 3 23.5 7.5t24.5 12.5l23 12
q9 6 23 17l22 17q8 6 24 20l23 21l24 23l23 22q19 17 44.5 16t42.5 -19.5t16 -44t-19 -42.5q-4 -3 -27.5 -25.5t-33.5 -30.5l-34 -29q-23 -20 -39 -31t-39 -25.5t-45.5 -23.5t-45.5 -15q-63 -16 -133 10q-160 59 -145 308q0 10 1 20q-31 3 -63 8q-25 3 -40 23.5t-11.5 45.5
t24 40t45.5 11q31 -4 63 -7q12 62 41 168q2 5 6 21l8 32q4 16 9 29q24 73 66 101q23 15 67 21q29 4 69 6h114q25 0 43 -18t18 -43t-18 -43t-43 -18z" />
    <glyph glyph-name="F" unicode="F" horiz-adv-x="651" 
d="M0 338q27 -1 55 1q-4 119 0 195q2 49 8 80q8 48 29 70q19 21 57 31q23 7 58 10q56 5 139 4q128 -2 228 -13q25 -3 40.5 -23t13 -45t-22.5 -40.5t-45 -13.5q-93 11 -216 13q-78 1 -125 -3q-22 -2 -35 -6q-1 -2 -1 -5q-4 -22 -6 -65q-4 -73 0 -177q43 6 141 24t155 26
q25 4 45 -11t23.5 -40.5t-11.5 -45.5t-41 -23q-45 -7 -148 -26t-158 -26q8 -143 17 -221q2 -25 -13.5 -45t-40.5 -22.5t-45 13t-23 40.5q-8 77 -17 223q-33 -2 -63 -1q-25 1 -42.5 19t-17 43t18.5 42.5t43 17.5z" />
    <glyph glyph-name="G" unicode="G" horiz-adv-x="665" 
d="M306 276q40 -1 86.5 6t74 14t93.5 26q24 7 46 -5.5t29 -37.5q6 -23 -5 -45q-1 -3 -2 -5q-34 -118 -36 -267q0 -25 -18 -42.5t-43.5 -17.5t-43 18t-17.5 44q0 15 1 29q-82 -35 -165 -45q-95 -13 -169 18q-73 31 -120 97q-42 60 -57 135q-15 77 -4 158q7 62 29.5 121.5
t61.5 114t89.5 93.5t120 58t148.5 11q100 -12 155 -63q41 -39 78 -130q9 -24 -1 -47t-33.5 -32.5t-46.5 0.5t-33 33q-26 67 -48 87q-25 24 -85 30q-64 8 -120.5 -13t-95.5 -62.5t-65 -96.5q-25 -55 -33 -120q-8 -62 3 -115q10 -54 36 -92q57 -80 174 -65q20 3 37.5 6.5
t29 6.5t29.5 9.5t26.5 10.5t32.5 14t37 16q3 23 8 46q-103 -25 -188 -23q-25 1 -42.5 19t-16.5 43.5t19 43t44 16.5z" />
    <glyph glyph-name="H" unicode="H" horiz-adv-x="595" 
d="M401 277q-76 -17 -182 -34q-25 -4 -45.5 10.5t-24.5 39.5t10.5 45.5t39.5 24.5q117 19 199 38q-6 168 -6 245q0 25 18 43t43 18t43 -18t18 -43q0 -69 5 -217q18 -2 31.5 -13.5t18.5 -28.5q8 -24 -4 -46.5t-36 -29.5l-6 -2q4 -196 -9 -327q-3 -25 -22.5 -41t-44.5 -13.5
t-41 22t-14 44.5q13 119 9 283zM182 652q-96 -332 -9 -633q7 -24 -5.5 -46.5t-36.5 -29.5t-46.5 5.5t-29.5 36.5q-96 335 9 701q7 24 29.5 36.5t46.5 5.5t36.5 -29.5t5.5 -46.5z" />
    <glyph glyph-name="I" unicode="I" horiz-adv-x="234" 
d="M209 651q-79 -328 -28 -607q5 -25 -9.5 -45.5t-39.5 -25.5t-45.5 9.5t-25.5 39.5q-56 302 30 657q6 25 27.5 38t46 7t37.5 -28q13 -21 7 -45z" />
    <glyph glyph-name="J" unicode="J" horiz-adv-x="455" 
d="M188 181q-5 1 -41 7t-58 6q-21 0 -29 -3q-6 -32 19 -74q12 -22 26 -33.5t24 -13.5q73 -10 102.5 0t50.5 71q22 66 27 182q4 88 -2 208l-5 87l-5 70q-1 26 16 44.5t42.5 19.5t44 -16t19.5 -42q1 -17 4.5 -70t4.5 -87q7 -127 3 -220q-6 -132 -34 -214q-39 -120 -127 -149
q-57 -19 -157 -4q-46 6 -81.5 36t-58.5 71q-22 38 -30.5 80t0.5 88q8 29 26 49t41 28.5t41.5 11t38 2.5t44.5 -3t46 -7l22 -3q25 -3 41 -23t13 -45t-23 -41t-45 -13z" />
    <glyph glyph-name="K" unicode="K" horiz-adv-x="567" 
d="M153 703q-7 -103 -10 -168.5t-6.5 -155.5t-2.5 -170.5t6 -157.5q1 -26 -15.5 -44.5t-42 -20t-44 15t-20.5 41.5q-5 80 -6 164t2.5 176.5t7.5 158.5l9 169q2 25 21 41.5t44 15t41.5 -20.5t15.5 -44zM470 588q-47 -27 -82 -57q-35 -29 -74 -75q-31 -37 -40 -52
q-8 -17 -5 -39q1 -14 27 -52q26 -36 75 -90q37 -41 92 -97l64 -64q18 -19 17 -44t-19.5 -42.5t-43.5 -16.5t-42 19q-7 8 -65 66t-93 96q-53 59 -84 103q-44 63 -50 108q-3 30 1.5 57t17.5 50.5t22.5 36.5t26.5 33q4 4 5 6q45 53 89 90.5t101 69.5q22 13 46.5 6t37 -29
t5.5 -46.5t-29 -36.5z" />
    <glyph glyph-name="L" unicode="L" horiz-adv-x="535" 
d="M187 662q-43 -291 -45 -311q-14 -116 -19 -182q-6 -79 -1 -94q6 -18 12 -22q30 -20 130 -2q69 13 167 47q24 8 47 -3t31 -35t-3 -47t-35 -31q-106 -35 -185 -50q-150 -28 -220 19q-42 29 -60 88q-12 38 -5 138q5 77 20 190q2 18 46 313q3 25 23.5 40t45.5 11.5t40 -24
t11 -45.5z" />
    <glyph glyph-name="M" unicode="M" horiz-adv-x="679" 
d="M293 395l61 85l55 72l67 84l58 72q8 20 27 30q16 11 36 10t36 -13q19 -15 22.5 -38.5t-9.5 -43.5q-22 -102 -26.5 -215.5t3.5 -215t26 -221.5q4 -25 -11 -45t-40 -24t-45 11t-24 40q-43 277 -30 485q-92 -117 -147 -207q-15 -24 -43 -28q-18 -6 -36.5 0t-30.5 22
q-63 83 -129 209q-22 -255 12 -430q5 -24 -9.5 -45t-39 -26t-45.5 9.5t-26 39.5q-12 64 -17.5 136t-6 123.5t5.5 137t9 121.5l14 130q3 26 22.5 41.5t44.5 13.5q13 -2 23 -7q28 -7 41 -32l36 -70l41 -79q11 -22 34 -61z" />
    <glyph glyph-name="N" unicode="N" horiz-adv-x="553" 
d="M529 622q-34 -164 -45 -306q-9 -134 -2 -315q1 -25 -16 -44t-42 -20q-33 -1 -53 25q-8 7 -14 15q-140 202 -236 431q-27 -221 8 -375q6 -25 -7.5 -46.5t-38 -27t-46 8t-26.5 37.5q-18 76 -23 155.5t3 170t16 147t24 156.5q3 18 5 27q4 25 24.5 39.5t45.5 10.5t40 -25
q8 -10 11 -21q73 -239 200 -460q5 210 52 441q5 25 26.5 39t46 9t38.5 -26.5t9 -45.5z" />
    <glyph glyph-name="O" unicode="O" horiz-adv-x="766" 
d="M426 617q-182 3 -283 -138q-36 -50 -51 -112.5t-5 -120.5t44.5 -98.5t94.5 -57.5q105 -30 187 7q49 22 96 63t77 91q64 107 13 193q-18 28 -51.5 50t-88.5 45q-23 9 -32.5 32t-0.5 46zM545 634q113 -52 158 -128q32 -52 38 -110.5t-8 -108.5t-43 -99q-39 -66 -100 -119.5
t-127 -83.5q-123 -55 -271 -13q-96 27 -153 95t-72 158q-15 83 6 169t72 157q82 113 201 157q121 44 260 24q25 -3 40 -23.5t11 -45.5q-2 -16 -12 -29z" />
    <glyph glyph-name="P" unicode="P" horiz-adv-x="648" 
d="M-70 646l66 37q26 14 66.5 33t74.5 28.5t75 17t83.5 5.5t85.5 -13q76 -18 137 -62q59 -43 88 -104q32 -69 13 -142q-19 -74 -87 -138q-20 -18 -48 -38t-43.5 -30t-52.5 -32t-42 -24q-21 -13 -45.5 -7t-37.5 27.5t-7 46t28 37.5q9 6 44 26l47 29q13 8 35 24q21 16 38 31
q78 72 47 139q-15 32 -52.5 59t-89.5 40q-87 21 -180 -8q3 -8 3 -16q5 -104 8 -316q4 -182 9 -319q1 -25 -16 -44t-42 -20t-44 16t-20 42q-5 121 -9 310q-3 203 -7 295l-65 -36q-22 -12 -46 -5.5t-36.5 28.5t-6 46t28.5 37z" />
    <glyph glyph-name="Q" unicode="Q" horiz-adv-x="766" 
d="M518 15q-27 -17 -55 -30q-123 -55 -271 -13q-96 27 -153 95t-72 158q-15 83 6 169t72 157q82 113 201 157q121 44 260 24q25 -3 40 -23.5t11 -45.5q-2 -16 -12 -29q113 -52 158 -128q32 -52 38 -110.5t-8 -108.5t-43 -99q-28 -46 -68 -88l55 -28q22 -12 29.5 -36
t-4.5 -46.5t-36 -30t-47 4.5q-5 3 -85 43zM379 250q18 -12 67 -48q39 -28 62 -42h1q47 42 77 91q64 107 13 193q-18 28 -51.5 50t-88.5 45q-23 9 -32.5 32t-0.5 46q-182 3 -283 -138q-36 -50 -51 -112.5t-5 -120.5t45 -98q34 -41 94 -58q94 -27 168 -1l-20 15q-46 33 -63 44
q-21 14 -26 39t9 46t39 26t46 -9z" />
    <glyph glyph-name="R" unicode="R" horiz-adv-x="674" 
d="M-114 598l18 18q15 15 31 29t30 23q61 39 131 63t145.5 31t152.5 -12.5t139 -65.5q105 -80 107 -183q2 -114 -114 -209q-39 -31 -103 -69q84 -74 201 -152q21 -14 26 -39t-9 -46t-39 -26t-46 9q-165 111 -278 221q-18 18 -18 43.5t17 43.5q8 8 18 12l38 22l41 25l37 23
q20 14 38 28q70 57 69 112q-1 44 -59 87q-54 41 -128.5 51.5t-146.5 -7.5q3 -10 4 -20q3 -66 6 -270q3 -189 13 -317q2 -25 -14.5 -44.5t-41.5 -21.5t-44.5 14.5t-21.5 41.5q-9 112 -13 317q-3 205 -5 257q-19 -10 -36 -21q-10 -7 -17 -14l-20 -20l-26 -24q-19 -17 -44 -16
t-42 20t-16 44t20 42z" />
    <glyph glyph-name="S" unicode="S" horiz-adv-x="630" 
d="M469 546q-8 13 -13.5 24.5l-7.5 15.5l-6 10q-2 4 -5 8q-9 10 -44 21q-19 5 -55 -2.5t-76 -28.5q-40 -22 -65 -46.5t-28 -41.5q-5 -21 5 -36t64 -36l70 -26l68 -23q94 -36 144 -74q80 -61 87 -148q5 -67 -34 -114q-38 -48 -125 -73q-73 -21 -158 -21q-87 -1 -155 19
q-89 26 -121 83q-39 69 -23 139q3 12 8.5 27.5t10 25t12.5 23.5l9 19q11 23 34.5 31.5t46.5 -2.5t31.5 -34.5t-2.5 -46.5l-11 -23q-7 -13 -10 -19.5t-6 -14t-4 -14.5q-6 -23 10 -51q8 -14 49 -26q51 -15 120 -15q68 1 125 17q50 14 65 32q8 10 6 28q-2 33 -39 61
q-36 27 -113 56q-20 8 -68.5 24.5t-71.5 26.5q-88 35 -119 79q-20 28 -26 65t1 67q12 53 55 96q44 44 101 73q35 19 71.5 31t77 16t73.5 -7q71 -20 103 -58q8 -10 16 -23.5t18 -32.5t11 -23q13 -22 5.5 -46t-29.5 -36.5t-46 -5t-36 29.5z" />
    <glyph glyph-name="T" unicode="T" horiz-adv-x="576" 
d="M8 639q73 15 230 61q158 47 244 61q25 4 45.5 -10.5t24.5 -39.5t-10.5 -45.5t-39.5 -24.5q-69 -12 -165 -39q-1 -3 -1 -6q-8 -40 -14 -79t-8 -87l-4 -78q-2 -30 -1 -90.5t1 -80t3 -91.5t3 -84q1 -25 -16.5 -43.5t-42.5 -19.5t-43.5 16.5t-19.5 42.5q0 9 -3 87.5
t-3.5 99.5t-1 87t1.5 101.5t6.5 88t11.5 97.5q-105 -30 -174 -44q-25 -5 -46 9t-26 39t9 46t39 26z" />
    <glyph glyph-name="U" unicode="U" horiz-adv-x="593" 
d="M171 658q-79 -291 -24 -468q16 -50 41 -78.5t51 -36.5q58 -16 122 58q47 55 67 250q7 68 12 177q6 109 8 130q2 25 21.5 41.5t44.5 14.5t41.5 -21.5t14.5 -44.5q-2 -21 -7.5 -132t-12.5 -178q-25 -232 -97 -317q-54 -63 -118 -89q-65 -25 -129 -6q-62 18 -107 70t-68 126
q-66 211 22 536q7 24 29 36.5t46 6t36.5 -28.5t6.5 -46z" />
    <glyph glyph-name="V" unicode="V" horiz-adv-x="579" 
d="M254 4q-5 7 -9 15l-65 145l-74 164q-24 58 -57 149.5t-51 169.5q-6 24 7 45.5t37.5 27.5t46 -7t27.5 -38q25 -102 65 -204t103 -242q60 251 157 438q11 22 35 30t46.5 -3.5t30.5 -35.5t-4 -47q-118 -229 -183 -586q-5 -25 -25.5 -39.5t-45.5 -9.5q-27 5 -41 28z" />
    <glyph glyph-name="W" unicode="W" horiz-adv-x="937" 
d="M578 3q-7 -6 -15 -9q-23 -10 -46.5 -0.5t-33.5 32.5q-44 101 -85 305q-75 -170 -110 -300q-2 -6 -5 -12q-10 -28 -38 -37q-24 -8 -46.5 3.5t-30.5 35.5q-5 14 -31.5 96l-34.5 107l-28 96q-21 69 -31 110l-23 98q-13 56 -21 108q-4 25 10.5 45.5t39.5 24.5t45.5 -10.5
t24.5 -39.5q27 -165 108 -420q40 106 134 307q11 31 42 39q25 6 46.5 -6.5t28.5 -36.5q17 -64 38.5 -173t32.5 -155q95 197 252 450q13 22 38 27.5t46.5 -7.5t27 -38t-7.5 -46q-200 -323 -303 -566q-7 -18 -24 -28z" />
    <glyph glyph-name="X" unicode="X" horiz-adv-x="659" 
d="M278 231l-182 -251q-15 -21 -40 -25q-24 -4 -45 10.5t-25 39t10 45.5l204 281q-91 122 -174 263q-12 22 -6 46.5t28 37t46.5 6.5t37.5 -28q78 -132 146 -226q128 159 254 283q18 17 43.5 17t43 -18t17.5 -43.5t-18 -43.5q-131 -127 -264 -295q98 -121 209 -224
q18 -18 19 -43t-16.5 -43.5t-42.5 -19.5t-44 16q-106 100 -201 215z" />
    <glyph glyph-name="Y" unicode="Y" horiz-adv-x="585" 
d="M200 339q-39 40 -76.5 92t-58.5 87l-56 98q-7 13 -11 19q-13 22 -6 46.5t29 37t46.5 5.5t36.5 -29l53 -93q15 -25 45.5 -70.5t58.5 -78.5q83 135 198 245q18 18 43.5 17t43 -19t16.5 -44q-1 -25 -19 -42q-241 -231 -325 -590q-5 -24 -26.5 -37.5t-46 -8t-38 27t-7.5 46.5
q36 157 100 291z" />
    <glyph glyph-name="Z" unicode="Z" horiz-adv-x="640" 
d="M533 603l-91 -113l-112 -143l-84 -118q-25 -37 -61 -96q199 16 381 -15q25 -4 39.5 -24.5t10.5 -45.5t-24.5 -39.5t-45.5 -10.5q-233 37 -476 -1q-25 -4 -45.5 11t-24.5 39q-3 19 4.5 35t22.5 26l56 92q39 64 61 97q66 98 221 291q-215 -3 -332 9q-25 3 -41 22.5
t-13.5 44.5t22 41t44.5 14q52 -6 113 -8t105 -2t117.5 1t112.5 1q25 0 43 -18t18 -43q0 -27 -20 -45z" />
    <glyph glyph-name="bracketleft" unicode="[" horiz-adv-x="275" 
d="M123 -126v-1q1 -2 3 -2q7 -1 12.5 -0.5t17 2t25.5 2.5q25 1 43.5 -15.5t20 -41t-15 -43t-40.5 -20.5q-1 0 -17 -1l-28 -3q-12 -1 -29 0q-68 6 -101 68q-6 12 -9 30q-2 11 -3 26q-2 26 -2 68q-1 72 1 191q4 184 10 318q2 50 3 56q1 38 1 43v13q-1 19 -1 20q-1 34 8 59
q31 85 95 91q20 2 50 -5q30 -8 36 -9q24 -4 38 -24.5t10 -45t-24.5 -38.5t-45.5 -10q-9 2 -42 10q-2 -5 -5 -11q-1 -2 0 -13v-6q0 -2 0.5 -5.5t0.5 -5.5v-24q0 -6 -1 -43q-1 -21 -3 -58q-6 -132 -10 -315q-2 -116 -1 -186q0 -39 2 -62q0 -6 1 -8v-1z" />
    <glyph glyph-name="backslash" unicode="\" horiz-adv-x="354" 
d="M61 696q57 -207 116 -361.5t144 -283.5q14 -21 9 -45t-26 -38t-45 -9t-38 26q-93 140 -155 303t-121 376q-6 24 6 45.5t36 28t45.5 -5.5t28.5 -36z" />
    <glyph glyph-name="bracketright" unicode="]" horiz-adv-x="214" 
d="M32 737q3 0 4.5 0.5t7.5 2t16 3.5q48 8 80 -16q27 -21 33 -65q3 -20 2 -50q-1 -19 -3 -44q0 -4 -1 -9t-1 -7v-5q-5 -192 7 -494q1 -29 6 -83q0 -2 0.5 -3.5t1.5 -6.5t3 -13q9 -38 -4 -67q-24 -55 -85 -75q-11 -4 -25.5 -7t-29 -5.5t-15.5 -2.5q-25 -5 -45.5 9t-25.5 38.5
t9 45t38 25.5l23 4q12 2 19 3t14 4q7 2 10 4q-7 24 -8 37q-5 64 -6 87q-14 290 -7 504q0 3 2 28q2 22 3 37v3q-12 -2 -19 -2q-25 -1 -43 16t-19 42t16 43t42 19z" />
    <glyph glyph-name="asciicircum" unicode="^" horiz-adv-x="483" 
d="M24 397q28 59 94 182l43 80l14 25l4 8q2 3 3 5q2 3 5 5q3 4 7 8q21 16 47 12q39 -6 73 -51q19 -25 41 -66l22 -45q11 -24 18 -37.5t11 -20.5q5 -7 10 -13l14 -15l16 -20q16 -19 13.5 -43.5t-21.5 -40.5t-43.5 -13.5t-40.5 21.5q-2 2 -12 14l-20 22l-16 22q-6 9 -16 29
l-22 45l-20 39l-5 10l-20 -36q-62 -118 -91 -178q-10 -22 -33.5 -30.5t-46 2t-31 34t2.5 46.5z" />
    <glyph glyph-name="underscore" unicode="_" horiz-adv-x="583" 
d="M3 -50q74 -5 243 -8.5t259 -10.5q24 -2 40.5 -21t14.5 -43.5t-21 -41t-44 -14.5q-90 7 -257.5 11t-242.5 8q-24 2 -40.5 20.5t-15 43t20 41t43.5 15.5z" />
    <glyph glyph-name="grave" unicode="`" horiz-adv-x="220" 
d="M90 750l95 -126q15 -20 11.5 -44.5t-23.5 -39.5t-44.5 -11.5t-39.5 23.5l-95 124q-15 20 -11.5 44.5t23 40t44 12t40.5 -22.5z" />
    <glyph glyph-name="a" unicode="a" horiz-adv-x="524" 
d="M151 471l51 -47l62 -58l50 -47q1 -1 40 -35q24 -21 43 -43q15 -16 45 -54l31 -40q19 -26 23 -39q16 -53 -8 -92q-17 -26 -56 -43q-29 -14 -70 -21q-83 -16 -166 -5q-103 13 -145 65q-58 73 15 174q15 21 55 42l17 8q8 5 17 9t11 5q18 9 36.5 2.5t27 -24t2 -36
t-23.5 -26.5q-3 -2 -11 -5.5t-16 -7.5t-15 -8l-24 -15q-31 -42 -18 -59q19 -23 84 -31q67 -9 136 4q30 6 50 15q9 3 14 7q0 5 -1 12l-1 1q-1 1 -4 5l-5 7q-9 14 -28 37l-42 51q-16 18 -35 34q-40 36 -42 38q-17 15 -50 47l-60 56l-51 45q-14 13 -15.5 32.5t11 34t32 16
t34.5 -10.5z" />
    <glyph glyph-name="b" unicode="b" horiz-adv-x="476" 
d="M128 683q-8 -54 -12 -119.5t-4.5 -111.5t0 -125t0.5 -119q0 -14 -6 -93l-4 -44q12 -3 26 -6q52 -9 111 -6q63 3 98 18q10 5 15.5 9.5t6 6.5t0.5 5l-1 2q-1 2 -2.5 4.5t-4 6t-6.5 8.5q-18 19 -52 46l-65 46q-42 28 -55 39q-15 12 -17 31.5t10.5 34.5t32 17t34.5 -11
q10 -8 48 -34q45 -30 69 -48q42 -32 65 -59q37 -41 38 -81q2 -73 -77 -109q-51 -23 -133 -26q-68 -3 -131 8q-31 5 -51 12q-32 12 -46 30q-6 8 -8 18q-1 3 -1 5v2v2v2v2v1v1q0 1 0.5 2.5t0.5 2.5l1 17l4 52q6 78 6 86q0 37 -0.5 117t0 128t4.5 117t12 127q3 19 18.5 30.5
t35 9t31 -18.5t9.5 -35z" />
    <glyph glyph-name="c" unicode="c" horiz-adv-x="426" 
d="M304 359q-1 1 -22 27q-8 10 -13 13q-44 31 -89 -12q-25 -24 -45 -64.5t-29 -86.5q-19 -96 14 -144q32 -45 123 -13l19 7l18 8q9 5 13.5 8t17.5 11t21 12q17 10 35.5 5.5t28.5 -21.5t5.5 -35.5t-21.5 -28.5l-20 -13l-20 -12l-17.5 -9t-22.5 -10.5t-25 -9.5
q-77 -27 -137 -15t-95 62q-56 81 -29 216q12 58 38 111.5t63 88.5q28 28 60 41.5t71.5 10t76.5 -28.5q16 -12 33 -32q1 -2 8 -11l10 -13q13 -14 12 -33.5t-15.5 -32.5t-34 -12t-32.5 16z" />
    <glyph glyph-name="d" unicode="d" horiz-adv-x="471" 
d="M417 706q7 -58 11 -123.5t4.5 -122.5t0.5 -122v-120q1 -68 5 -113q1 -1 5 -14q13 -39 -7 -66q-14 -19 -47 -30q-21 -7 -52 -12q-63 -11 -134 -8q-82 3 -134 26q-82 36 -79 110q2 39 39 80q25 27 67 59l71 49q41 28 49 34q15 12 34.5 10t31.5 -17.5t10 -35t-18 -31.5
q-13 -10 -55 -38q-49 -32 -67 -46q-35 -27 -53 -47q-7 -7 -10.5 -12t-4.5 -7v-2q0 -2 0.5 -3.5t6 -6.5t15.5 -10q36 -16 101 -18q60 -3 114 6q15 3 27 6q-3 10 -4 16q-4 48 -5 121v122q0 63 -0.5 118.5t-4.5 118t-11 117.5q-2 19 10 34.5t31 18t34.5 -9.5t18.5 -31z" />
    <glyph glyph-name="e" unicode="e" horiz-adv-x="510" 
d="M448 -16q-60 -11 -106.5 -15t-110 3.5t-113.5 32.5q-58 28 -95.5 81t-47.5 111.5t14.5 119t83.5 102.5q62 43 148 59.5t163 3.5l11 -1q12 -2 20 -3q40 -10 52 -44q9 -25 -6 -55q-7 -16 -23 -36q-24 -31 -68 -75q-57 -59 -124 -117q-15 -13 -34.5 -12t-32 16t-11.5 34.5
t16 31.5q63 56 120 113q33 33 52 57q-59 8 -122.5 -5.5t-106.5 -44.5q-45 -31 -56.5 -80.5t12.5 -97.5t77 -74q36 -18 84 -23q48 -6 90.5 -2.5t97.5 12.5q19 4 35 -7.5t19.5 -30.5t-8 -35t-30.5 -19z" />
    <glyph glyph-name="f" unicode="f" horiz-adv-x="298" 
d="M23 371q14 -1 31 1q-3 72 2 134q5 61 17 107q11 42 28 67q31 46 78 42q49 -4 59 -61q1 -8 2 -14t1 -7v-4q0 -1 1 -3q7 -18 -1 -36t-26 -25q-30 -12 -52 13q-9 -37 -13 -87q-4 -53 -3 -112q49 8 77 11q19 1 34 -11.5t16.5 -31.5t-11 -34t-31.5 -17q-28 -2 -80 -12
q1 -20 12.5 -135.5t13.5 -182.5q1 -20 -12.5 -34t-33 -15t-33.5 12.5t-15 32.5q-2 57 -12.5 168t-12.5 141q-21 -2 -40 -1t-32.5 15t-12.5 33.5t15 33t34 12.5z" />
    <glyph glyph-name="g" unicode="g" horiz-adv-x="456" 
d="M117 -79q11 -8 23.5 -18.5t21 -17t17.5 -11.5q14 -7 39 -6.5t37 8.5q62 36 78 135q3 23 4.5 50.5t1.5 47t-0.5 51.5t-0.5 48q0 64 -8 122q-10 73 -29 100h-1l-2 1t-4 1.5t-7 0.5t-10 -1t-13.5 -3t-17.5 -6q-66 -26 -117 -84q-47 -53 -40 -84q2 -6 8 -13t31 -17.5
t65 -14.5q8 -1 15.5 -1.5t17 0.5t15 2t19.5 3t22 3q19 3 34.5 -8.5t18.5 -30.5t-8.5 -34.5t-30.5 -18.5q-5 -1 -19.5 -3.5t-22.5 -3.5l-21 -2q-13 -2 -25.5 -1.5t-26.5 1.5q-159 20 -183 117q-19 79 61 169q66 74 152 108q28 11 55 15.5t59.5 -4.5t51.5 -37q32 -45 46 -141
q9 -64 9 -135q0 -12 0.5 -45t0.5 -55t-1.5 -54t-5.5 -57q-23 -144 -123 -203q-34 -19 -83 -20.5t-85 18.5q-13 6 -27 16l-28 22l-19 15q-16 12 -18.5 31t9 35t30.5 18.5t35 -8.5z" />
    <glyph glyph-name="h" unicode="h" horiz-adv-x="509" 
d="M143 657q-15 -179 -1 -373l23 46q25 47 45 75q13 18 26 29q20 19 41 22q31 5 58 -10t43 -37q18 -26 36 -88q13 -45 28 -115q8 -34 22.5 -106.5t20.5 -94.5q4 -19 -6 -36t-28.5 -21.5t-35.5 5.5t-22 28q-5 23 -20 97l-22 108q-15 67 -27 109q-14 46 -24 60q-2 4 -5 6
q-4 -4 -9 -12q-16 -23 -38 -63q-29 -56 -57 -122q-20 -50 -28 -73v-6v-11q0 -7 -1 -10q0 -21 -7 -34q-9 -20 -29 -27q-20 -8 -41 1q-9 4 -15 10.5t-8 10.5t-2 5l-2 8q-1 2 -1 5v3v6v15q-1 39 -1 48q0 74 -3 102q-22 234 -4 448q2 19 17 31.5t34 11t31.5 -16.5t11.5 -34z" />
    <glyph glyph-name="i" unicode="i" horiz-adv-x="196" 
d="M162 470q-20 -192 11 -426q2 -19 -10 -34.5t-31 -18t-34.5 9.5t-18.5 31q-32 250 -11 448q2 19 17.5 31.5t34.5 10.5t31.5 -17.5t10.5 -34.5zM154 618q0 -19 -14 -33t-33 -14t-33 14t-14 33t14 33t33 14t33 -14t14 -33z" />
    <glyph glyph-name="j" unicode="j" horiz-adv-x="209" 
d="M5 -85q21 -42 39 -66q5 -6 9 -10q10 25 15 72q8 66 5 180q-4 148 -2 190q1 33 16 185q2 19 17 31.5t34.5 10.5t32 -17t10.5 -35q-15 -151 -16 -179q-2 -41 2 -184q3 -124 -5 -194q-10 -78 -32 -117q-14 -25 -37.5 -38t-52.5 -5q-36 9 -70 53q-25 31 -49 81
q-9 18 -2.5 36.5t24 27t36 2t26.5 -23.5zM186 611q0 -19 -14 -33t-33 -14t-33 14t-14 33t14 33t33 14t33 -14t14 -33z" />
    <glyph glyph-name="k" unicode="k" horiz-adv-x="527" 
d="M137 674q-3 -245 8 -632q1 -19 -12.5 -33t-33 -15t-33.5 12.5t-15 33.5q-11 388 -8 636q0 19 14 32.5t33.5 13.5t33 -14t13.5 -34zM438 444l-102 -102q-38 -39 -58 -62l-14 -16q4 -12 16 -30q21 -29 62 -68q31 -28 80 -67q59 -48 66 -53q14 -13 15.5 -32.5t-11 -34
t-32 -16t-34.5 10.5q-5 5 -63 52q-52 41 -85 71q-49 45 -75 83q-38 55 -34 101q1 13 9 26l9 11q7 9 21 25l61 64l101 103q14 14 33.5 14t33.5 -13.5t14 -33t-13 -33.5z" />
    <glyph glyph-name="l" unicode="l" horiz-adv-x="176" 
d="M136 692q0 -14 -2.5 -105.5t-2.5 -116.5v-100q0 -75 2 -115t7 -98.5t12 -109.5q3 -19 -8.5 -35t-30.5 -18.5t-35 9t-18 30.5q-8 53 -13 114.5t-7.5 103.5t-2.5 118v103q0 27 2.5 117t2.5 105q0 19 14.5 32.5t33.5 13.5t32.5 -14.5t13.5 -33.5z" />
    <glyph glyph-name="m" unicode="m" horiz-adv-x="614" 
d="M1 20q-12 62 -13 124.5t16 129.5q18 65 54 119q33 49 65 76q31 26 62 32q48 8 82 -29q19 -21 27 -67q3 -12 4 -25q60 88 134 113q26 8 41 11q38 5 64 -13q41 -28 51 -110q6 -55 1 -140q-2 -41 -7 -89.5t-10 -89.5t-6 -51q-2 -20 -17 -32.5t-34.5 -10.5t-32 17t-10.5 34
q1 11 6 51t10 87.5t7 89.5q5 77 -1 123q-3 26 -9 40q-6 -1 -23 -7q-45 -15 -88 -79q-7 -10 -35 -71q-12 -25 -23 -37q-31 -35 -70 -17q-10 4 -16.5 11.5t-8.5 13.5l-2 5q-2 6 -3 14q-2 8 -3 24q-1 7 -2 27t-2 33q-3 39 -7 60q-2 12 -5 19q-6 -3 -14 -9q-22 -19 -47 -56
q-40 -60 -50.5 -143.5t7.5 -157.5q4 -19 -6.5 -35.5t-29.5 -20.5t-35.5 6.5t-20.5 29.5z" />
    <glyph glyph-name="n" unicode="n" horiz-adv-x="457" 
d="M291 398q-20 4 -69 -52q-14 -17 -25 -38t-19 -50.5t-11.5 -48.5t-10 -60.5t-9.5 -57.5q-1 -7 -2 -18q-1 -21 -2 -24q-3 -37 -17 -61q-3 -6 -8 -11q-13 -14 -32 -16q-30 -2 -46 24q-4 8 -6 17q-1 10 0 28q0 2 2 23q1 12 1 16q-1 60 0 136q0 55 5.5 156t6.5 131
q1 19 15 32.5t33.5 12.5t33 -15t12.5 -34q-1 -36 -5 -97q7 9 14 17q100 115 181 74q60 -30 84 -146q26 -129 15 -329q-1 -19 -15.5 -32t-34 -12t-32.5 15.5t-12 34.5q10 193 -13 304q-15 70 -34 81z" />
    <glyph glyph-name="o" unicode="o" horiz-adv-x="496" 
d="M154 399q-67 -84 -72 -210q-4 -90 52 -116q21 -13 59 -8t78 30q61 39 89.5 98t14.5 120t-69 104q-15 12 -37.5 22t-33.5 10q-9 0 -15 -2.5t-9.5 -4.5t-17 -14t-23.5 -20q-7 -6 -16 -9zM274 537q48 -14 90 -46q52 -40 80 -92.5t29.5 -105.5t-15.5 -105.5t-52.5 -97
t-84.5 -75.5q-57 -36 -116 -43.5t-111 16.5q-53 25 -81 79t-25 126q5 121 60 217.5t159 152.5q17 10 35.5 4.5t27.5 -23.5q2 -3 4 -7z" />
    <glyph glyph-name="p" unicode="p" horiz-adv-x="484" 
d="M31 -257q-5 48 -7.5 95t-4 110.5t-1.5 90.5v111v95q0 10 -5 91l-4 55q0 12 -1 18v5v2v3v3q0 2 1 5q2 10 7 18q13 18 46 29q21 7 51 13q64 11 133 9q85 -2 137 -27q81 -37 78 -116q-2 -40 -38 -82q-24 -28 -67 -61q-24 -19 -70 -51q-39 -26 -50 -35q-15 -13 -34.5 -11
t-32 17t-10.5 34.5t17 31.5q12 10 57 41q44 30 66 47q35 27 53 48q15 17 15 25q1 16 -24 27q-35 16 -100 18q-59 2 -114 -8q-14 -2 -25 -5l3 -47q5 -84 5 -97q0 -21 -0.5 -95t0 -106t1.5 -90.5t4 -105.5q2 -40 8 -95q2 -20 -10.5 -35t-32 -17t-34.5 10.5t-17 31.5z" />
    <glyph glyph-name="q" unicode="q" horiz-adv-x="481" 
d="M333 -205q7 54 10.5 119t4.5 106t1 126v113q1 69 5 118q1 7 4 17q-11 3 -24 5q-56 10 -115 9q-66 -2 -101 -17q-15 -6 -19 -11.5t-4 -10.5q0 -6 15 -23q17 -19 52 -45q22 -17 66 -46q43 -27 56 -38q16 -12 18 -31.5t-10 -35t-31.5 -17.5t-34.5 10q-10 8 -49 34
q-47 30 -71 48q-41 32 -66 59q-37 41 -39 81q-2 41 21 69t59 44q52 22 136 24q68 1 133 -11q30 -5 51 -12q33 -11 45 -29q20 -27 8 -65q-4 -12 -6 -15v-1q-4 -45 -5 -110v-113q0 -86 -1 -128t-4.5 -110.5t-10.5 -124.5q-3 -19 -18.5 -31t-34.5 -9.5t-31 18t-10 34.5z" />
    <glyph glyph-name="r" unicode="r" horiz-adv-x="347" 
d="M100 288q53 100 149 171q16 11 35 8.5t30.5 -18.5t9 -35t-18.5 -31q-122 -92 -154 -228q-5 -19 -12 -100q-4 -46 -5 -53q-2 -13 -3 -21l-4 -12q-6 -19 -26 -28q-22 -10 -43 -1q-23 10 -29 35q-4 14 -1 34q1 10 2 17t1.5 9.5t0.5 4.5q-1 10 -4 29t-4 26q-7 61 -16 177
l-12 140q-2 19 10.5 34t32 17t34.5 -10.5t17 -32.5q3 -37 10 -132z" />
    <glyph glyph-name="s" unicode="s" horiz-adv-x="530" 
d="M326 410q-16 0 -36 2t-21 -1q-22 -5 -55 -23t-39 -29q-4 -6 -3 -10q2 -7 14 -19q27 -24 108 -62q112 -52 136 -68q86 -54 77 -121q-7 -41 -36 -66t-69 -37q-68 -20 -158 -10q-89 10 -151 45q-85 48 -78 123q3 24 22 47l7 7l3 3l1 1q1 1 2 3q11 16 30.5 19.5t35.5 -7.5
t19.5 -30.5t-7.5 -35.5q-6 -8 -18 -21q5 -13 30 -27q45 -25 115 -34q71 -8 120 7q34 10 38 26q-4 10 -33 28q-22 14 -126 63q-94 44 -131 78q-33 29 -42 63q-11 41 12 83q20 33 76 64q45 24 80 32q12 3 28.5 3t32.5 -1l16 -1q19 0 33 -14t14 -33t-14 -33t-33 -14z" />
    <glyph glyph-name="t" unicode="t" horiz-adv-x="295" 
d="M9.5 499q19.5 -1 39.5 -1l5 74l5 58q2 20 16.5 32.5t34 11t32 -16t11.5 -33.5q-1 -16 -5 -56l-5 -65q28 3 76 10q19 2 34.5 -9.5t18 -31t-9 -35t-31.5 -18.5q-59 -8 -93 -11q-2 -42 -2 -79q0 -190 42 -254q1 -1 7 -5l10 -7q8 -6 14 -11q15 -12 17 -31.5t-10.5 -34.5
t-32 -17t-34.5 11q-2 2 -7 5l-12 8q-20 14 -30 30q-58 88 -58 306q0 35 2 75q-20 0 -39.5 1t-32.5 15.5t-12 34t15.5 32.5t34 12z" />
    <glyph glyph-name="u" unicode="u" horiz-adv-x="479" 
d="M143 426q-58 -139 -74 -231q-12 -68 0 -103q9 -27 41 -29q64 -4 116 81q36 61 71 180q19 66 25 105q0 3 2 31q0 13 1 18t3 9q3 11 11 18q12 13 29 14q20 2 35 -11q9 -8 14 -20q1 -3 2 -7q0 -3 1 -6q5 -19 2.5 -114.5t-2.5 -104.5q2 -104 35 -231q4 -19 -6 -36
t-28.5 -21.5t-35.5 5.5t-22 28q-20 80 -29 147q-13 -28 -27 -52q-82 -135 -203 -127q-47 3 -78.5 27.5t-45.5 64.5q-20 58 -4 150q18 102 81 251q7 18 25 25.5t36 0t25.5 -25.5t-0.5 -36z" />
    <glyph glyph-name="v" unicode="v" horiz-adv-x="482" 
d="M201 110l1 6q26 100 65 180t105 183q11 17 30 21t35.5 -6.5t20.5 -29.5t-6 -35q-64 -99 -99.5 -172t-58.5 -165q-2 -7 -8.5 -33t-9.5 -40q-6 -23 -11 -36q-4 -11 -9 -18q-13 -23 -37 -26q-25 -4 -46 14q-8 8 -15 19q-10 15 -20 39q-7 15 -20 53q-55 150 -91 386
q-3 19 8.5 34.5t30.5 18.5t34.5 -8.5t18.5 -30.5q34 -216 82 -354z" />
    <glyph glyph-name="w" unicode="w" horiz-adv-x="698" 
d="M276 250l-32 -129l-22 -86l-8 -28q-2 -7 -4 -11q-2 -5 -4 -9q-4 -6 -9 -10q-19 -18 -44 -11q-15 4 -24 15q-3 3 -5 6q-1 2 -2 5q0 1 -1 2l-1 2v2l-1 4l-5 13l-12 39l-19 62q-58 189 -76 339q-2 20 10 35t31.5 17.5t34.5 -9.5t18 -31q15 -130 61 -286q25 103 33 127l32 86
l12 31l3 9l2 3q0 1 1 2q0 2 1 4l4 6q5 5 10 8q25 18 51 2q33 -20 37 -67q1 -12 0.5 -22t0.5 -10q26 -127 46 -192q10 34 11 37q60 180 187 322q13 15 32.5 16t34 -12t15.5 -32.5t-12 -33.5q-113 -128 -167 -290q-1 -2 -4 -14l-10 -31q-6 -20 -10 -36q-10 -33 -17 -52
q-4 -13 -7 -20q-2 -5 -4 -9t-5 -8q-9 -12 -23 -17q-29 -9 -52 13q-6 6 -11 16q-6 10 -14 28q-11 26 -25 67q-19 60 -38 138z" />
    <glyph glyph-name="x" unicode="x" 
d="M94 485q20 -28 86 -130l28 -42l15 15l41 41q20 20 47 44l41 36l48 41l43 36q15 12 34 10.5t31.5 -16.5t11 -34t-16.5 -32l-43 -36l-48 -40l-38 -34q-26 -23 -45 -42l-38 -38l-26 -29l1 -2q21 -26 70 -80q50 -54 74 -86q12 -16 9.5 -35t-18 -31t-34.5 -9.5t-31 17.5
q-21 28 -69 80q-45 49 -65 74q-94 -109 -162 -160q-15 -11 -34.5 -8.5t-31 18t-9 35t18.5 31.5q29 21 59 50.5t49 50.5l52 60l-43 64q-65 101 -83 127q-12 16 -8.5 35t19.5 30.5t35 8t30 -19.5z" />
    <glyph glyph-name="y" unicode="y" horiz-adv-x="480" 
d="M455 449q-11 -31 -23 -61.5t-30 -66.5l-26 -55l-34 -64l-28 -55l-66 -125q-24 -44 -64.5 -111t-79.5 -120q-12 -16 -31 -18.5t-35 9t-18.5 30.5t8.5 35q76 103 173 287q-3 3 -6 7q-117 187 -168 303q-8 18 -1 36t25 26t36 1t26 -25q47 -106 138 -252q87 165 114 249
q7 18 24 27t35.5 2.5t27.5 -23.5t3 -36z" />
    <glyph glyph-name="z" unicode="z" horiz-adv-x="568" 
d="M29 480q23 0 41.5 -0.5t21.5 -0.5h9q7 0 9.5 0.5t19.5 2.5l39 3q43 3 79 5l77 3q26 1 41 1h14h6h5q3 -1 7 -2q12 -2 22 -14q28 -31 8 -75q-3 -7 -18 -31q-15 -25 -47 -50q-33 -26 -37 -30l-160 -164l-57 -60h2q17 1 46 4q15 1 33 3t29 3.5t13 1.5q69 5 266 5q19 0 33 -14
t14 -33t-14 -33t-33 -14q-194 0 -260 -5q-1 0 -11.5 -1t-27.5 -3t-32 -4q-31 -3 -51 -4q-31 -2 -45 2q-26 7 -43 17q-37 21 -43 57q-8 42 35 69q6 3 10 5.5t5 3t1.5 1t1.5 0.5l60 63l162 166q8 8 45 37l3 3q-38 -1 -56 -2q-34 -2 -75 -5l-41 -3q-18 -2 -20.5 -2.5
t-11.5 -0.5h-12q-2 0 -22 0.5t-43 0.5q-19 0 -32.5 14t-13.5 33.5t14 33t34 13.5z" />
    <glyph glyph-name="braceleft" unicode="{" horiz-adv-x="375" 
d="M242 664q-11 0 -26 1q-1 0 -7.5 0.5t-10.5 1.5h-10q-21 -11 -25 -86q-1 -28 0 -87q2 -58 0 -81q-4 -38 -17.5 -84t-33.5 -77l-2 -2q13 -10 20 -22q6 -10 11 -23.5t7.5 -26t4 -22.5t2 -18.5t0.5 -9.5q1 -8 14 -119q7 -61 17 -91q11 -33 34.5 -51t75.5 -21
q25 -2 41.5 -20.5t14.5 -43.5t-20.5 -41.5t-43.5 -14.5q-167 11 -216 153q-13 41 -22 117q-11 97 -13 112q-3 15 -4 26l-1 16q-1 6 -1 8l-8 4q-53 22 -62 67q-9 50 40 84q12 8 13 9q23 40 29 103q2 15 0 66q-1 63 0 96q8 150 98 190q27 12 65 9l20 -1q8 -1 12 -1
q25 1 43 -16.5t19 -42t-16.5 -42.5t-41.5 -19z" />
    <glyph glyph-name="bar" unicode="|" horiz-adv-x="164" 
d="M140 696q-16 -121 -20 -258t-0.5 -247.5t13.5 -262.5q1 -25 -15 -43.5t-41 -20t-43.5 14.5t-20.5 41q-10 154 -13.5 266.5t1 255.5t21.5 270q3 25 22.5 40t44.5 11.5t40 -23t11 -44.5z" />
    <glyph glyph-name="braceright" unicode="}" horiz-adv-x="341" 
d="M34 773q4 0 12 1l21 1q38 3 66 -9q92 -39 99 -190q2 -33 0 -96q-2 -53 0 -66q2 -21 11 -53.5t18 -49.5q2 0 13 -8q53 -34 43 -85q-9 -46 -64 -68l-8 -4q-6 -16 -11 -51q-3 -21 -7 -63q-4 -39 -5 -51q-9 -80 -22 -122q-23 -76 -73 -104q-29 -17 -73 -26q-7 -2 -18 -4
l-20 -3q-9 -2 -18 -5q-24 -6 -45.5 6t-28 36t5.5 45.5t36 28.5q2 0 63 13q27 6 40 13q7 5 16 35q11 33 18 100q0 7 5 52q4 42 7 65q10 73 31 106q8 12 20 21l-2 3q-19 29 -33.5 78t-18.5 83q-2 23 0 82q2 58 0 86q-3 75 -26 86h-11q-3 -1 -6 -1t-6.5 -0.5t-5.5 -0.5
q-15 -1 -27 -1q-24 1 -41.5 19t-16.5 42.5t19 42t43 16.5z" />
    <glyph glyph-name="asciitilde" unicode="~" horiz-adv-x="622" 
d="M-10 211q59 144 146 161q68 14 152 -54l34 -30l35.5 -28.5t27.5 -18.5q17 -9 26.5 -9t20.5 9q8 6 24 36l10 21l12 22l7 16q11 23 34.5 31t46 -3t30.5 -34.5t-3 -45.5q-31 -63 -32 -64q-28 -53 -57 -75q-81 -62 -178 -9q-19 11 -39.5 26.5t-45 37t-29.5 25.5
q-40 32 -52 30q-3 -1 -8.5 -4.5t-20 -26t-29.5 -59.5q-10 -23 -33 -32.5t-46 0t-32.5 32.5t-0.5 46z" />
    <glyph glyph-name="egrave" unicode="&#xe8;" horiz-adv-x="510" 
d="M448 -16q-60 -11 -106.5 -15t-110 3.5t-113.5 32.5q-58 28 -95.5 81t-47.5 111.5t14.5 119t83.5 102.5q62 43 148 59.5t163 3.5l11 -1q12 -2 20 -3q40 -10 52 -44q9 -25 -6 -55q-7 -16 -23 -36q-24 -31 -68 -75q-57 -59 -124 -117q-15 -13 -34.5 -12t-32 16t-11.5 34.5
t16 31.5q63 56 120 113q33 33 52 57q-59 8 -122.5 -5.5t-106.5 -44.5q-45 -31 -56.5 -80.5t12.5 -97.5t77 -74q36 -18 84 -23q48 -6 90.5 -2.5t97.5 12.5q19 4 35 -7.5t19.5 -30.5t-8 -35t-30.5 -19zM188 688q66 -39 183 -71q19 -5 29 -21q9 -17 4 -36t-21.5 -28.5
t-35.5 -4.5q-130 35 -207 79q-17 10 -21.5 29t5 36t28.5 21.5t36 -4.5z" />
    <glyph glyph-name="eacute" unicode="&#xe9;" horiz-adv-x="510" 
d="M448 -16q-60 -11 -106.5 -15t-110 3.5t-113.5 32.5q-58 28 -95.5 81t-47.5 111.5t14.5 119t83.5 102.5q62 43 148 59.5t163 3.5l11 -1q12 -2 20 -3q40 -10 52 -44q9 -25 -6 -55q-7 -16 -23 -36q-24 -31 -68 -75q-57 -59 -124 -117q-15 -13 -34.5 -12t-32 16t-11.5 34.5
t16 31.5q63 56 120 113q33 33 52 57q-59 8 -122.5 -5.5t-106.5 -44.5q-45 -31 -56.5 -80.5t12.5 -97.5t77 -74q36 -18 84 -23q48 -6 90.5 -2.5t97.5 12.5q19 4 35 -7.5t19.5 -30.5t-8 -35t-30.5 -19zM124 588q34 17 105.5 57t109.5 58q18 9 36.5 2.5t27 -24t2 -36
t-23.5 -26.5q-39 -19 -110 -58.5t-105 -56.5q-17 -9 -35.5 -2.5t-27.5 23.5t-2.5 35.5t23.5 27.5z" />
    <glyph glyph-name="quoteleft" unicode="&#x2018;" horiz-adv-x="245" 
d="M183 657q-16 -68 -26 -127q-2 -13 -3 -25q19 3 37 -6.5t26 -28.5q10 -23 1 -46t-32 -33q-1 -1 -2 -1.5t-2.5 -1.5t-6 -5t-12.5 -9q-51 -34 -96 -7q-28 16 -35 54q-3 17 -3 41q1 34 10 87q10 63 28 136q5 24 26.5 37t45.5 7.5t37 -27t7 -45.5z" />
    <glyph glyph-name="quoteright" unicode="&#x2019;" horiz-adv-x="254" 
d="M46 648q42 35 72 47q59 24 95 -19q23 -28 17 -76q-3 -25 -15 -59q-24 -74 -83 -187q-11 -22 -35 -29.5t-46 4t-29.5 35.5t4.5 46q39 75 62 132q-31 -2 -50 22q-16 19 -13.5 44t21.5 40z" />
    <glyph glyph-name="quotedblleft" unicode="&#x201c;" horiz-adv-x="383" 
d="M179 678l-19 -38q-9 -17 -12.5 -23t-6 -11t-3.5 -9t-2 -9l-5 -26q-4 -21 -10 -49q-5 -25 -26 -38.5t-45.5 -8.5t-38 26t-8.5 45q20 95 22 101q3 8 9 19l16 33l21 42q11 22 34.5 30t46 -3t30.5 -34.5t-3 -46.5zM350 685q-29 -44 -43.5 -82.5t-20.5 -88.5q-3 -25 -23 -40.5
t-44.5 -12.5t-40 23t-12.5 44q8 65 28 116q19 51 56 107q13 21 37.5 26t45.5 -8.5t26 -38t-9 -45.5z" />
    <glyph glyph-name="quotedblright" unicode="&#x201d;" horiz-adv-x="449" 
d="M119 694q2 -2 3.5 -3t7 -4t13.5 -8q38 -23 48 -57q9 -27 1 -65q-4 -24 -15 -56q-1 -1 -32 -80q-9 -23 -32 -33t-46 -1t-33 32t-1 46q2 4 7 18l12 29q6 15 11 29q8 23 11 38l1 1q-22 12 -32 20q-19 16 -21.5 41t13 44t40.5 21.5t44 -12.5zM374 703q2 -3 7 -8l13 -15
q24 -28 30 -57q8 -39 -7 -117q-1 -5 -21 -95q-6 -24 -27 -37.5t-45 -8t-37.5 26.5t-8.5 45q20 89 21 91q10 51 7 69q-1 3 -4 6l-11 12q-9 11 -15 20q-15 20 -10.5 44.5t25 39t45 10t38.5 -25.5z" />
    <glyph glyph-name="uni3000" unicode="&#x3000;" horiz-adv-x="1000" 
 />
  </font>
</defs>
</svg>
